<svg width="202" height="141" viewBox="0 0 202 141" fill="none" xmlns="http://www.w3.org/2000/svg">
<path d="M197.651 74.1447L170.453 109.717L150.986 138.049C137.884 134.54 124.873 129.581 112.713 123.556C107.285 120.864 101.647 117.935 96.7206 114.379C80.22 102.596 71.3106 85.8039 50.8081 78.9192C36.9958 74.2457 22.3519 77.4685 9.86466 69.5197C7.71145 68.1531 6.03926 66.2568 3.99756 64.8972C24.2616 52.3995 38.3945 32.352 49.7677 11.6835C57.3655 8.35418 65.4928 5.50598 73.8286 4.68593C106.705 1.71223 115.506 32.7153 139.972 46.0063C158.808 56.2568 182.525 58.3056 197.756 74.2632L197.651 74.1447ZM85.9409 7.9093C74.9158 5.202 61.6099 8.50877 51.7674 13.7123C41.5314 30.5339 31.0029 46.6655 15.7708 59.2552C13.6446 61.0248 10.8492 62.7525 8.83446 64.5292C8.47892 64.8427 8.1514 64.7102 8.44393 65.4003C8.74345 65.9788 11.6564 67.729 12.4159 68.1125C25.1892 75.0717 39.0454 71.9115 52.3072 76.4385C73.5693 83.7068 83.1403 102.444 101.119 113.872C113.39 121.695 132.352 129.939 146.289 134.396C147.056 134.668 149.69 135.505 150.373 135.324C161.167 118.538 172.386 102.113 184.887 86.6654C187.557 83.3626 191.015 79.9973 193.357 76.562C193.852 75.8094 194.556 75.2938 194.166 74.3737C193.874 73.6836 189.491 70.3858 188.522 69.7653C172.516 59.0206 149.727 56.4703 132.821 45.7812C115.916 35.092 107.866 13.5399 86.0314 8.25082L85.9409 7.9093Z" fill="black"/>
<path d="M85.9411 7.89024C107.775 13.1793 115.178 34.3549 132.731 45.4206C150.284 56.4863 172.426 58.6601 188.432 69.4047C189.401 70.0252 193.784 73.3231 194.076 74.0131C194.466 74.9332 193.762 75.4488 193.267 76.2014C190.924 79.6367 187.355 82.995 184.796 86.3048C172.288 101.864 161.07 118.288 150.283 134.964C149.711 135.152 147.077 134.315 146.199 134.036C132.254 129.69 113.3 121.335 101.028 113.511C83.1616 102.09 73.4791 83.3462 52.217 76.0779C38.9552 71.5509 25.0918 74.8227 12.3255 67.7519C11.566 67.3684 8.65325 65.6182 8.35372 65.0396C8.05419 64.4611 8.38871 64.4821 8.74424 64.1686C10.7589 62.3919 13.5542 60.6642 15.6804 58.8946C30.9125 46.3049 41.4411 30.1733 51.6772 13.3517C61.5197 8.1482 74.8184 4.95284 85.8505 7.54863L85.9411 7.89024ZM149.093 130.747C156.267 119.89 163.226 108.908 170.944 98.3095C174.981 92.8535 179.506 86.7564 183.864 81.5444C184.951 80.2693 189.113 76.3883 189.497 75.6287C190.131 74.4371 188.076 73.3005 187.219 72.687C171.506 60.8412 148.911 58.751 131.789 47.9364C114.668 37.1217 106.158 15.7646 83.8284 11.228C73.5489 9.1273 63.2124 11.501 53.6839 15.2688C43.9909 34.1397 31.552 52.1665 14.4102 64.8602C14.3822 65.3062 18.0826 66.9939 18.8492 67.266C30.2988 72.127 43.4232 69.9283 55.1378 74.1342C75.4033 81.228 86.3468 101.282 103.51 111.428C111.391 116.065 120.653 120.117 129.05 123.667C135.601 126.317 142.277 128.751 149.086 130.858L149.093 130.747Z" fill="#6C671E"/>
<path d="M149.093 130.738C142.284 128.631 135.608 126.197 129.058 123.547C120.653 120.108 111.399 115.945 103.518 111.308C86.2429 101.155 75.4109 81.1079 55.1454 74.0141C43.3122 69.9127 30.3064 72.0069 18.8568 67.1458C18.2017 66.8808 14.2783 65.1791 14.4178 64.7401C31.5596 52.0464 43.9915 34.1311 53.6915 15.1487C63.22 11.3809 73.5565 9.0072 83.836 11.1079C106.054 15.6375 114.251 36.6391 131.797 47.8163C149.343 58.9934 171.513 60.7212 187.226 72.5669C188.083 73.1805 190.139 74.3171 189.504 75.5087C189.121 76.2683 184.847 80.1422 183.871 81.4243C179.514 86.6363 174.996 92.6219 170.952 98.1894C163.352 108.683 156.275 119.77 149.1 130.627L149.093 130.738ZM83.6814 15.3524C83.9669 16.154 95.005 22.2206 96.8107 20.2069C94.756 15.4879 88.7905 14.2178 83.9675 14.3628L83.6814 15.3524ZM79.9881 13.5531C76.1692 11.97 66.6348 12.267 63.4349 15.0888C62.6053 15.8204 62.0057 16.4544 63.4484 16.6569C65.8806 17.1455 77.5899 16.0895 79.249 14.6263C79.6046 14.3128 79.8485 13.9922 79.8835 13.4347L79.9881 13.5531ZM96.4816 25.4479C86.4762 15.4159 69.4839 16.812 57.0072 21.1784C55.0625 21.8399 52.5462 22.6895 51.2146 24.2851C46.7386 29.6017 43.1193 37.3229 38.7268 43.0925C35.192 47.6844 26.192 55.5157 24.0303 59.6341C22.7612 62.0173 25.5909 61.5233 25.1374 63.398C24.6838 65.2726 22.9206 64.8261 21.84 65.9897C23.9307 66.5688 26.384 66.7228 28.5168 66.6328C29.4088 66.6889 31.019 66.0063 31.3535 66.0273C32.3571 66.0903 34.7124 67.8055 37.3957 67.862C38.6223 67.939 41.7101 66.9014 42.1491 67.0409C42.8182 67.0829 44.1769 68.6235 45.3825 69.0351C50.0029 70.3327 53.6763 68.8841 57.3292 65.9789L60.8345 67.2064C61.3111 57.8325 65.5019 49.9233 71.212 42.7811C77.8982 34.3567 86.4377 28.5117 96.6073 25.2319L96.4816 25.4479ZM60.8066 17.7225L61.6507 14.9768C60.8071 15.9314 57.7753 16.0769 57.1758 16.7109C56.9387 16.9199 56.4572 19.2406 55.4256 19.6237L61.7962 18.0085L60.8066 17.7225ZM90.0313 87.1756C96.485 87.8046 104.188 82.8027 108.19 77.9042C115.935 68.6508 121.606 53.2218 116.961 41.6231C111.452 27.7312 98.3219 24.6678 86.1717 32.7491C78.2249 38.0716 71.8596 44.9488 67.0831 53.2691C69.0698 51.9385 70.2345 49.4368 71.9077 47.7506C73.8179 45.8554 76.7247 44.1347 78.7394 42.358C84.5325 37.4601 89.343 32.1645 97.5603 31.449C113.89 29.8994 119.28 47.4782 112.363 59.5823C110.975 62.0701 109.344 63.0872 108.353 66.3836C107.788 68.2512 108.387 69.4084 108.052 71.1785C107.109 79.0678 100.752 82.2511 94.1928 85.0859L95.0573 83.7967L91.9486 85.1688L92.0186 84.0538C89.8999 83.9207 89.8088 85.3704 89.8083 87.1616L90.0313 87.1756ZM85.3209 58.7802L83.8627 64.1742C83.5557 65.4983 85.7354 71.7925 85.3934 73.6742L86.1464 72.378C86.8505 71.8625 87.1496 74.2322 87.0241 74.4483L88.3902 74.0862L88.6757 74.8878C88.7387 73.8842 89.9093 74.8533 90.6414 73.8917C91.2755 74.4913 90.7945 75.0208 90.7595 75.5784C90.6544 77.2511 91.6515 75.6344 92.0141 75.2094C92.7252 74.5823 93.6312 74.4153 93.7153 73.0772C93.7293 72.8542 90.5589 69.8563 91.2075 68.4417L95.6325 71.0705C96.5671 68.6662 95.1034 68.7982 93.7168 67.7036C92.5462 66.7345 91.2016 64.9708 90.1285 64.2317C89.5919 63.8622 87.4871 63.5062 87.9961 62.5306C88.6932 62.1265 89.7178 61.855 90.4774 62.2385C90.7004 62.2525 90.5469 62.9146 90.7629 63.0401C92.4491 64.7133 96.3995 69.5513 97.9827 65.7325L96.3311 65.2929C96.8541 64.0943 94.7083 60.825 93.7117 60.6504C93.0426 60.6084 92.1087 61.2215 91.5931 60.5174C93.2243 59.5003 94.1238 57.6536 96.326 58.2397L94.4299 59.9119C96.0331 59.3408 98.4503 63.6348 99.9419 63.0567C103.058 59.7819 104.483 47.7807 110.329 54.5289C113.92 49.0449 114.445 40.6815 109.024 36.0871C104.453 32.2177 96.6811 34.7524 92.3451 37.8387C91.5226 38.4587 89.766 39.6918 89.8285 40.4794C92.4912 39.0793 94.4084 37.0725 97.3707 36.251C97.7122 36.1605 98.4093 35.7564 98.5973 36.328L89.7515 41.7061L89.7165 42.2636L94.129 39.7418C95.4531 40.0489 93.2503 41.254 92.6577 41.7765C90.7335 43.8947 84.9465 52.2635 83.1063 53.0436C82.6462 53.2386 82.3397 52.7716 81.5171 53.3917C80.576 54.1162 78.4913 57.008 80.359 57.573L82.3247 56.577C82.1706 59.0302 80.0514 60.6884 79.2563 62.6536C77.8056 66.145 77.2537 71.3719 79.5039 74.7598L79.8679 68.9612L79.9508 71.2054L81.5195 69.4008L81.8391 73.2272C81.9086 73.9033 82.6057 73.4992 82.7312 73.2832C82.9962 72.6281 82.3497 66.878 82.6847 65.1078C82.8662 63.9997 83.2777 62.7941 83.6822 61.7L85.551 58.6827L85.3209 58.7802ZM91.2364 89.3783C96.9634 96.231 104.879 102.102 112.67 106.397C121.98 111.46 134.259 117.38 144.238 120.694C145.66 121.231 149.395 122.361 150.747 122.222C152.204 122.201 153.717 119.497 154.686 118.327C162.16 108.049 169.663 97.3248 176.921 86.9213C177.779 85.7437 181.341 80.7057 181.293 79.6951C181.349 78.803 177.531 75.4286 176.562 74.8081C173.991 72.9674 170.283 71.3912 167.454 70.0941C151.447 62.9318 137.112 57.6658 121.775 48.7543C121.343 48.5033 121.029 48.1477 120.604 47.7852C121.759 56.142 118.627 65.0134 114.701 72.2676C109.896 81.034 102.074 89.7229 91.355 89.2738L91.2364 89.3783ZM157.051 61.0447L152.208 59.733L153.03 60.9042L151.273 62.1372L154.771 63.4764L154.632 62.1243L157.163 61.0517L157.051 61.0447ZM164.626 63.4234L158.793 61.8257L159.615 62.9968C159.615 62.9968 158.911 63.5124 158.458 63.5959C157.789 63.5539 156.709 62.9264 156.563 63.4769L178.876 73.61C180.535 73.938 183.901 75.6047 184.382 73.2839C179.93 69.31 174.111 67.4894 168.759 65.3621L168.974 67.2788C167.769 66.8673 160.646 66.1962 162.138 63.827C162.759 62.8584 164.347 64.3015 164.842 63.549L164.626 63.4234ZM85.2279 42.4296C84.2243 42.3666 82.9207 43.5161 81.9866 44.1292C80.5855 45.0488 79.1844 45.9684 77.9922 47.125C78.7098 48.1776 84.8164 43.6352 85.2279 42.4296ZM85.262 45.4544L82.9688 46.318L79.4344 49.1187C81.8111 48.7082 83.5888 47.1406 85.262 45.4544ZM107.463 59.1628C108.265 57.0861 108.147 55.3995 105.576 55.3499L104.829 56.5346C104.829 56.5346 105.847 56.3745 106.279 56.6256C106.92 57.1136 106.941 58.5703 107.47 59.0513L107.463 59.1628ZM69.5698 58.2391C70.5394 55.2773 73.0143 53.3057 74.5204 50.7134C71.7812 51.549 69.3338 54.8658 68.9428 57.5281C68.9148 57.9741 68.8728 58.6431 69.4584 58.2321L69.5698 58.2391ZM105.936 62.0896L103.274 59.9074C102.186 64.7648 99.0203 68.8202 97.3811 73.5312C97.9387 73.5662 98.6708 72.6046 99.0333 72.1796C100.232 70.9115 106.521 63.4698 105.929 62.2011L105.936 62.0896ZM71.3955 59.4732C72.1976 57.3965 73.2157 55.4453 74.4499 53.6196C72.9792 53.8631 71.689 56.5809 71.159 57.8911C70.894 58.5461 70.6359 59.0897 71.3955 59.4732ZM87.3565 81.634C84.3242 83.5706 79.6979 78.8022 78.1793 76.2439C76.2566 72.9886 76.1951 68.6186 76.9837 64.9738C77.1442 64.2002 78.4547 62.9391 77.7021 62.4441C76.468 64.2697 75.7984 66.0189 75.4424 68.1236L75.0945 66.5344L74.1463 67.3705L74.2163 66.2554C72.6827 67.5026 72.6402 69.9627 72.6327 71.8654C72.6451 77.0159 75.5843 83.6937 80.9784 85.1519C81.3129 85.1729 82.6371 85.4799 82.7906 84.8178C79.1597 83.8062 75.7459 79.3377 75.9839 75.5464C77.2095 79.2057 80.8814 83.1306 85.1398 83.0621C85.6973 83.0971 87.6561 82.2125 87.3565 81.634ZM64.1028 68.6431L65.0249 61.0884C63.8883 63.1441 62.5632 66.4194 64.1028 68.6431ZM87.7516 89.6072C86.839 88.0946 84.0162 88.4772 84.6497 90.8679C85.2903 93.1471 88.8662 91.4684 87.7516 89.6072ZM89.5558 92.9671C89.6048 92.1865 89.8072 90.7439 88.6991 90.5624L86.8655 93.0221L88.1616 93.7752L88.7822 92.8066C88.5031 93.6847 87.9801 94.8833 89.3042 95.1904L91.0194 92.8351L90.5038 92.1311L89.5558 92.9671ZM92.3501 94.8218L91.2074 93.4067L90.1613 95.8039L92.3701 98.0696L94.3152 95.6169L92.9076 94.8568C92.3706 96.2785 90.8169 94.2778 92.3501 94.8218ZM97.6596 99.4093C97.6596 99.4093 97.144 98.7052 96.8025 98.7957C95.7218 99.9594 95.1013 100.928 96.6064 101.918L98.0215 100.775L96.7805 102.713L97.77 102.999L99.2972 100.072L98.5517 99.4654C97.4501 100.963 97.7641 99.5279 97.5481 99.4023L97.6596 99.4093ZM99.9512 103.919C99.7772 103.125 101.548 101.669 100.342 101.257L98.7526 103.396C100.71 106.094 101.986 105.39 102.621 102.408L101.631 102.122C101.631 102.122 101.477 104.575 100.063 103.926L99.9512 103.919ZM105.283 104.59L103.346 103.349L101.491 106.143C103.115 107.029 102.118 105.063 103.54 105.6L103.672 107.064L105.283 104.59ZM108.405 106.577L105.924 105.078L104.397 108.005C106.452 109.141 108.871 109.853 108.405 106.577ZM109.233 109.428L110.975 110.209C113.513 109.025 110.885 108.076 109.345 107.644L108.285 110.264L110.39 110.62L109.233 109.428ZM115.338 110.259C115.338 110.259 113.394 109.129 112.927 109.436L111.212 111.791L113.832 112.851L112.822 111.109L113.937 111.179L113.443 110.14C113.443 110.14 115.93 111.528 115.227 110.252L115.338 110.259ZM119.136 112.177L116.3 110.991L115.24 113.611C117.281 114.971 119.721 115.348 119.248 112.184L119.136 112.177ZM119.818 115.578C121.281 117.237 123.393 117.482 123.986 115.168C124.049 114.164 122.077 113.481 121.185 113.425L119.818 115.578ZM127.917 116.758C127.31 115.713 123.889 114.938 123.86 117.175C124.438 120.458 129.129 118.849 127.917 116.758ZM130.46 117.254L129.345 117.184L128.09 119.344L128.501 119.929L135.965 122.301L136.912 123.256L137.825 122.978L137.777 120.176C135.596 119.255 134.731 122.336 132.487 120.628L133.729 118.69L132.405 118.383L131.498 120.341L129.554 119.212L130.474 117.031L130.46 117.254ZM142.781 122.505L139.499 121.292L138 123.772C139.296 124.525 139.303 122.623 140.711 123.383L140.285 124.811C141.623 124.895 141.937 123.46 142.781 122.505ZM147.143 124.346C146.997 123.106 145.318 123.112 144.433 122.945C143.652 122.896 143.464 124.115 143.101 124.54C142.738 124.965 141.798 123.899 141.832 125.132C142.85 124.972 146.522 127.106 146.516 125.427C146.558 124.757 144.871 124.875 145.499 123.795L147.262 124.242L147.143 124.346Z" fill="black"/>
<path d="M91.2355 89.3895C101.955 89.8386 109.777 81.1497 114.581 72.3833C118.619 65.1361 121.639 56.2577 120.485 47.9009C120.91 48.2634 121.223 48.619 121.655 48.87C136.993 57.7815 151.328 63.0476 167.335 70.2098C170.276 71.514 173.99 72.9786 176.443 74.9238C177.404 75.6558 181.111 79.0232 181.174 79.8108C181.118 80.7029 177.659 85.8594 176.802 87.037C169.432 97.4335 162.041 108.165 154.567 118.443C153.709 119.62 152.196 122.324 150.628 122.337C149.283 122.365 145.659 121.242 144.119 120.809C134.139 117.496 121.861 111.575 112.551 106.513C104.648 102.21 96.8441 96.3466 91.1171 89.4939L91.2355 89.3895ZM130.002 56.7828L128.044 55.8762L126.51 60.7057C129.659 64.0381 130.301 60.9437 132.358 58.498C133.27 60.0106 131.381 61.5713 130.433 62.4074L132.391 63.314C132.391 63.314 132.19 61.1742 133.298 61.3558C133.221 62.5824 132.879 64.4641 134.656 64.6876L137.598 60.6182L135.64 59.7116C135.821 60.3947 135.626 61.7259 134.734 61.6698L134.448 59.077L130.644 57.2709C130.043 63.2785 126.133 61.3537 130.002 56.7828ZM139.891 61.5458L137.8 60.9668C137.974 61.7613 137.437 63.183 136.949 63.8241C136.461 64.4651 135.611 63.74 135.653 64.8622L137.938 65.9013C137.716 64.0961 139.012 63.058 139.891 61.5458ZM144.909 63.652L140.525 62.1453L140.1 63.574L141.549 63.6651L139.234 66.6543L141.66 67.2544L142.546 63.8396L143.96 64.4881L144.797 63.645L144.909 63.652ZM151.04 71.2018C150.03 69.4591 153.124 68.3101 152.748 67.1669C152.358 66.2469 146.741 64.7747 145.682 63.8126C145.396 64.8022 145.305 66.2518 144.475 66.9834C144.113 67.4084 142.566 67.0874 143.388 68.2585L145.897 69.3116L147.214 67.939L145.298 68.1545L147.054 66.9214L146.218 65.9733C147.215 64.3566 147.417 66.4964 149.117 66.1553L147.13 69.2771L149.088 70.1837C149.088 70.1837 148.538 68.246 149.842 68.8876C149.779 69.8912 149.82 71.0133 151.158 71.0973L151.04 71.2018ZM156.637 69.4262C157.09 67.5515 153.208 66.9719 153.201 68.8746C153.124 70.1012 155.005 70.4433 154.615 71.3144C153.848 72.8335 153.131 69.9897 152.58 69.8432C152.246 69.8222 151.528 70.5608 151.827 71.1393C152.496 72.9725 155.744 72.9525 155.758 70.9383C155.814 70.0462 154.169 69.4952 154.553 68.7356C155.494 68.011 155.445 68.7916 155.515 69.4677L156.63 69.5377L156.637 69.4262ZM160.86 71.7064C162.484 70.8008 157.905 68.8341 157.118 68.8966L156.692 70.3253L158.267 70.2002L155.939 73.4126L158.364 74.0127C158.099 72.8765 158.504 71.7824 159.341 70.9393C160.177 70.0962 159.814 72.3125 160.748 71.6994L160.86 71.7064ZM162.9 76.6484C163.047 74.3067 165.369 71.2059 161.787 71.2048C161.354 72.745 159.639 73.3091 158.677 74.3682L160.308 75.1422L160.378 74.0272C161.159 74.0762 162.183 73.8046 161.765 75.1217L160.65 75.0517L162.796 76.5299L162.9 76.6484ZM131.353 63.8085C128.774 63.8705 126.382 68.0864 129.448 69.1745C132.299 70.1371 134.984 64.8201 131.353 63.8085ZM166.713 74.7607L167.793 75.3883L168.511 74.6498C168.546 74.0922 165.299 72.321 164.462 73.1641L166.1 73.8266L163.318 77.1225L165.276 78.0291C164.928 76.4399 166.079 75.9523 166.609 74.6422L166.713 74.7607ZM135.115 68.075L135.98 66.7858L136.6 67.6084L137.645 67.0024C137.255 66.0823 134.872 64.8131 134.161 65.4402C134.16 67.2314 133.296 68.5205 132.104 69.6771L133.741 70.3397L134.641 68.493L135.61 69.1135L136.216 68.368L135.233 67.9704L135.115 68.075ZM171.25 77.3965C171.25 77.3965 172.107 76.2189 171.682 75.8563L169.076 74.5732C168.636 76.2249 167.667 77.3955 166.475 78.5521L169.388 80.3023L169.674 79.3127L168.245 78.8872L168.671 77.4585L170.121 77.5496L170.323 76.1069C170.644 76.3509 170.434 77.9051 171.243 77.508L171.25 77.3965ZM142.335 68.9761C141.457 68.6971 140.83 67.986 139.903 68.4876L136.006 71.7133C137.539 72.2574 138.703 73.338 138.411 70.8567L139.84 71.2823L139.177 72.9199L141.024 73.8195C141.129 72.1469 141.241 70.3627 142.335 68.9761ZM145.283 71.9599C145.813 70.6498 145.409 69.9527 144.091 69.5342C143.338 70.8303 139.992 74.2026 142.766 74.6007L144.16 72.0013L143.428 74.7541L145.659 73.103L144.431 74.8171L146.048 75.8143C146.111 74.8107 147.122 72.971 147.847 72.1209C148.091 71.8004 148.837 72.407 148.788 71.3964C148.119 71.3544 146.935 70.6083 146.363 70.7963C146.022 70.8868 145.938 72.2249 145.283 71.9599ZM174.35 79.7183C175.522 77.105 171.543 76.2954 171.451 79.5362C171.423 79.9823 172.852 80.4078 172.001 81.4739L170.371 80.6999L170.413 80.0307C167.994 81.1103 171.464 82.8956 172.642 81.962C174.524 80.5128 171.821 78.9997 172.859 78.5052C172.859 78.5052 173.863 78.5682 173.835 79.0142C173.793 79.6833 173.221 79.8712 174.336 79.9413L174.35 79.7183ZM152.398 72.7425L148.983 71.8564C149.206 73.6616 147.575 74.6787 146.703 76.0793L149.874 77.2859L150.404 75.9758L148.634 75.6408C149.923 74.7142 150.014 75.0557 150.014 73.2645L151.13 73.3345L151.074 74.2266L152.398 72.7425ZM155.98 74.5347L152.705 73.2096L152.607 74.7707L150.271 78.0945L152.041 78.4296L153.136 77.0429C152.09 79.4401 155.282 80.3123 156.94 80.6403C156.704 79.0581 157.792 75.9918 159.882 76.5708C156.627 80.2847 157.198 81.8879 161.825 83.074C161.672 81.9449 161.923 81.5129 163.24 81.9315L162.466 83.5621C163.135 83.6041 164.069 84.7822 164.78 84.1551L165.869 79.2977L163.91 78.3911C163.798 80.1753 161.693 81.6104 160.048 81.0593C157.526 80.2292 160.642 76.9544 161.785 78.3696L161.722 79.3732C165.165 78.0221 158.942 75.5043 157.576 75.8663C156.718 77.0439 156.481 79.0442 154.78 79.3852C153.686 77.1895 156.056 76.8904 155.98 74.5347ZM134.946 74.3336C133.399 74.0125 132.145 72.5904 130.52 73.496C129.885 76.4788 127.564 79.5796 125.842 82.0463C124.119 84.513 122.181 86.8543 119.929 88.8399L123.978 90.3256C124.069 88.876 124.906 88.0329 125.652 86.8483C128.378 82.6534 131.899 78.2845 134.946 74.3336ZM127.198 92.5429C127.609 93.1284 130.355 93.9726 131.142 93.9101C133.052 93.8061 136.761 90.0086 137.981 88.406C139.431 86.7058 144.207 80.1767 141.977 78.2455C141.768 78.0084 139.057 76.6068 138.723 76.5858C137.162 76.4878 134.722 77.9019 133.648 78.954C132.101 80.4242 127.827 86.0893 127.143 88.0615C126.732 89.2671 126.369 91.4832 127.086 92.5358L127.198 92.5429ZM149.092 80.8193C144.981 80.3372 141.418 85.3752 139.43 88.497C137.938 90.8662 134.842 95.5977 138.076 97.5919C141.309 99.5861 144.056 96.8478 146.21 94.6321C148.615 91.9844 156.752 81.8599 149.092 80.8193ZM111.287 89.193C110.089 86.8787 106.645 91.8122 106.854 92.0492C107.46 93.0948 109.314 90.3006 110.192 90.5797L109.698 89.541L111.287 89.193ZM114.987 90.8807C114.332 90.6157 113.496 89.6676 112.785 90.2946C112.158 91.3747 110.512 92.6148 111.432 94.016L112.422 92.5108L113.746 92.8179L112.924 91.6467L114.987 90.8807ZM118.479 92.3314C117.05 91.9058 114.373 95.3201 115.662 96.1847C118.136 97.7953 120.904 92.9314 118.479 92.3314ZM121.119 98.4305L120.861 97.1828L122.994 95.3017C122.632 93.9355 121.622 93.984 120.388 94.0185L121.357 94.639C121.357 94.639 121.321 95.1966 121.084 95.4056C120.464 96.3742 118.694 96.0392 118.401 97.1403L121.133 98.2074L121.119 98.4305ZM122.282 99.511C124.379 101.77 129.351 93.9095 123.51 96.0057L125.043 96.5498L124.987 97.4419L123.398 97.7899C123.941 98.0479 124.227 98.8495 123.76 99.156C123.063 99.56 123.182 97.6644 122.262 98.0544L122.171 99.504L122.282 99.511ZM130.59 97.3459C128.172 96.6343 128.596 100.579 126.526 101.457C128.129 102.677 130.792 97.6944 130.59 97.3459ZM134.813 99.6261C133.726 99.1101 132.556 98.1409 131.28 98.8445C130.862 100.162 133.859 98.7825 133.217 100.086C132.959 100.629 130.038 102.573 130.247 102.81C131.522 103.898 134.911 99.8561 134.813 99.6261ZM139.002 100.673L135.148 99.6471C134.283 100.936 137.232 100.338 136.5 101.299L133.53 104.024C134.073 104.282 134.429 103.968 134.896 103.662C135.593 103.257 137.35 102.024 138.054 101.509C138.409 101.195 138.855 101.223 138.89 100.666L139.002 100.673ZM138.986 106.269C139.983 104.653 143.706 100.632 139.371 101.927C140.395 103.447 138.22 104.206 138.032 105.426L138.986 106.269ZM143.775 103.1C141.984 103.099 140.715 105.482 141.621 107.106C143.432 110.355 148.034 103.031 143.775 103.1ZM105.87 97.0253L104.531 96.9413L104.441 94.8085L101.702 97.4353L104.587 97.8404C103.938 101.046 107.319 98.9075 108.085 99.1795L110.217 102.672L112.043 102.115C111.109 104.519 114.963 103.753 115.715 104.248C116.148 104.5 115.876 105.266 116.196 105.51C116.419 105.524 120.224 107.33 120.447 107.344C120.998 107.491 121.681 107.31 122.231 107.456C122.886 107.721 122.837 108.502 123.618 108.551C123.479 105.408 122.517 106.467 120.88 105.804C120.224 105.539 117.082 103.886 116.768 103.531C116.566 103.182 116.824 102.639 116.497 102.506C113.855 103.572 113.465 102.652 111.786 100.867L109.646 101.069L110.26 100.212C108.803 98.441 108.141 98.2874 105.883 98.5934L105.974 97.1438L105.87 97.0253ZM135.48 106.833L129.424 105.221C129.424 105.221 128.609 105.73 128.574 106.287C128.539 106.845 129.856 107.263 129.472 108.023C129.11 108.448 128.719 109.319 128.364 109.633C128.008 109.946 126.691 109.528 126.642 110.308C126.593 111.089 131.283 113.062 132.175 113.118C132.789 112.261 131.848 111.195 132.232 110.435C132.629 109.453 134.525 107.78 135.362 106.937L135.48 106.833ZM138.428 108.025C134.198 107.648 132.273 113.348 135.534 114.897C143.471 118.642 146.213 108.85 138.428 108.025ZM145.487 111.491C144.804 111.672 142.964 114.244 142.692 115.01C140.899 120.383 151.074 122.365 152.17 115.605C152.575 112.72 147.544 110.837 145.599 111.498L145.487 111.491Z" fill="#B2A221"/>
<path d="M96.4801 25.4532C86.3176 28.6215 77.6597 34.571 71.085 43.0024C65.3749 50.1446 61.1841 58.0539 60.7075 67.4278L57.2021 66.2001C53.5562 68.9939 49.8758 70.5541 45.2553 69.2565C44.0427 68.9564 42.6842 67.4157 42.0222 67.2622C41.4646 67.2272 38.4951 68.1603 37.2685 68.0833C34.5923 67.9152 32.2232 66.4231 31.2266 66.2486C30.892 66.2276 29.2889 66.7986 28.3898 66.8541C26.2571 66.9441 23.8038 66.7902 21.713 66.2111C22.7937 65.0475 24.5638 65.3825 25.0104 63.6193C25.4709 61.6331 22.7457 62.2457 23.9033 59.8554C26.0651 55.737 35.065 47.9058 38.5999 43.3139C43.1038 37.5513 46.7301 29.7185 51.0876 24.5065C52.4192 22.9109 54.9355 22.0612 56.8802 21.3997C69.2454 17.0263 86.2447 15.5187 96.3546 25.6693L96.4801 25.4532ZM77.7817 21.9283C77.0151 21.6563 75.0221 21.3073 74.4225 21.9413C73.7044 22.6799 75.5235 22.2344 75.2374 23.224C74.8329 24.3181 73.3553 24.6731 73.0623 25.7742C73.8704 27.1683 77.9907 22.1653 77.7887 21.8168L77.7817 21.9283ZM78.0593 26.4238L80.2 22.6399C77.8372 22.8274 78.7294 22.8834 78.1018 23.9635C77.7183 24.7231 77.2303 25.3641 76.9513 26.2422L77.9408 26.5283L78.0593 26.4238ZM79.69 27.1978C81.6482 28.1044 84.7574 24.9411 83.2803 23.505L82.2907 23.219C80.562 24.0061 80.8962 25.8182 79.69 27.1978ZM74.2345 21.3698L71.4467 21.1947L70.9165 22.5049L71.5507 23.1044C70.8187 24.066 69.2434 24.1911 69.0409 25.6337C70.344 26.2753 74.534 21.9483 74.2275 21.4813L74.2345 21.3698ZM70.694 20.6997C69.3839 20.1696 68.0038 20.7547 67.6968 22.0788L68.812 22.1488L65.8422 24.8731C68.4834 25.5987 69.2509 22.2883 70.701 20.5881L70.694 20.6997ZM66.9861 20.9147C66.2896 19.5275 64.288 24.6635 64.0439 24.9841C64.915 25.3746 64.713 25.0261 65.0825 24.4896C65.452 23.953 67.1881 21.2632 66.9861 20.9147ZM64.6095 21.3253C63.9129 19.9381 61.3257 25.4852 61.1861 25.9242C62.0782 25.9802 64.8185 21.5623 64.6095 21.3253ZM62.2257 21.8473C61.3546 21.4567 61.5566 21.8053 61.1871 22.3418C60.462 23.1919 59.8345 24.272 59.4369 25.2546L59.089 23.6654L57.6943 26.2647C59.8965 26.8507 61.7651 23.8335 62.2187 21.9588L62.2257 21.8473ZM56.6912 24.4105C56.0921 23.2534 53.2613 27.3297 53.1148 27.8803C53.5188 28.5774 55.6731 26.3617 56.1262 26.2782L55.6176 25.4626L56.5797 24.4035L56.6912 24.4105ZM54.3075 24.9326C51.9798 24.5625 51.2471 27.3153 50.5705 29.176C51.142 28.988 52.2016 28.1589 52.5642 27.7338C53.0522 27.0928 52.8713 26.4097 53.1153 26.0892C53.3664 25.6571 54.37 25.7201 54.3075 24.9326ZM52.0887 33.5254C53.8033 32.9613 55.163 30.9196 55.8255 29.282L53.8388 30.6126L52.9193 29.2115L52.2071 33.4208L52.0887 33.5254ZM63.0313 32.1973C57.0237 31.5962 46.9502 40.4796 46.8022 46.4037C46.5851 49.8605 52.2932 49.883 54.7884 49.368C59.0958 48.5189 64.1849 44.1365 66.2141 40.3456C68.2433 36.5547 67.8052 32.8329 63.0243 32.3088L63.0313 32.1973ZM50.6395 31.6432L52.2083 29.8385C49.6295 29.9005 47.4892 31.8932 47.6557 34.5905L51.2876 32.0198L50.6395 31.6432ZM58.2303 53.3904C55.178 52.0792 51.1286 52.3848 47.6507 52.5023C44.849 52.5503 40.8346 52.2983 38.5134 53.6079C40.7016 54.417 43.0993 53.6719 45.448 53.7074C49.2534 53.7224 53.2818 53.7515 56.9336 54.4285L58.2373 53.2789L58.2303 53.3904ZM58.6408 55.7672C53.3373 54.6506 46.9741 54.363 41.468 54.689C39.8929 54.814 38.6803 54.5139 37.7947 56.1376C38.1013 56.6046 47.5382 56.0776 48.9949 56.0571C51.9011 56.1276 54.7654 56.8672 57.7067 56.3802C58.2713 56.3037 58.5708 56.8823 58.6408 55.7672ZM38.4978 59.2044C38.4978 59.2044 38.5327 58.6468 38.7627 58.5493C38.8742 58.5563 41.7735 58.7383 42.2195 58.7663C42.8886 58.8083 43.4043 59.5125 43.8503 59.5405C44.4079 59.5755 44.6938 58.5859 45.2584 58.5094C45.9275 58.5514 46.7986 58.9419 47.5792 58.9909C48.6943 59.061 50.43 58.1624 51.6496 58.3509C52.7647 58.4209 53.6982 59.599 54.8344 59.3345L53.0647 57.2083C53.0647 57.2083 48.9458 56.8377 48.3813 56.9142C46.9246 56.9347 45.628 57.9728 44.6244 57.9098C42.2826 57.7628 36.7905 57.8657 35.1318 57.5377C32.9156 57.1747 32.6721 55.7041 31.2215 59.1954C31.4235 59.544 35.536 58.2348 36.0936 58.2698C36.8741 58.3188 37.6127 59.0369 38.6023 59.323C37.4311 60.145 36.0649 60.507 34.8938 61.3291C33.6042 62.2557 30.6135 65.3145 32.7667 66.6811C33.3033 67.0507 38.5442 67.3798 39.4433 67.3243C43.1511 67.1092 47.1811 61.7647 42.2542 60C40.937 59.5814 39.815 59.6229 38.4838 59.4274L38.4978 59.2044ZM34.7144 55.2725L35.0004 54.283C34.2338 54.0109 31.9752 56.1081 32.1772 56.4567L36.345 56.0466L36.4151 54.9315L34.7144 55.2725ZM51.9276 61.0551C44.8048 60.384 38.6552 69.1779 49.6533 68.7489C51.563 68.6449 55.571 67.2172 56.1431 65.238C56.8616 62.7083 54.0463 61.1881 51.9276 61.0551ZM33.2492 60.7781L26.9906 60.609C27.6032 63.3343 26.453 63.8219 24.8844 65.6265C26.09 66.0381 29.7418 66.7152 30.7944 65.9976C31.38 65.5866 31.1156 64.4504 31.3946 63.5724C31.7991 62.4782 32.8447 61.8722 33.2422 60.8896L33.2492 60.7781Z" fill="#B2A221"/>
<path d="M85.3223 58.8245L83.4537 61.8417C83.1607 62.9429 82.749 64.1485 82.456 65.2496C82.121 67.0198 82.7676 72.7698 82.5025 73.4249C82.4885 73.6479 81.6799 74.045 81.6104 73.3689L81.2909 69.5426L79.7223 71.3472L79.6393 69.103L79.2752 74.9016C77.1365 71.5207 77.6886 66.2937 79.1392 62.8023C79.9343 60.8371 82.1651 59.186 82.2076 56.7258L80.2419 57.7218C78.3672 57.2683 80.4588 54.265 81.3999 53.5405C82.2225 52.9204 82.529 53.3874 82.9891 53.1924C84.8362 52.3008 90.7279 44.0506 92.5406 41.9254C93.0287 41.2843 95.3429 40.0862 94.0117 39.8906L89.5994 42.4124L89.6344 41.8548L98.4802 36.4768C98.4037 35.9122 97.5952 36.3093 97.2536 36.3998C94.4028 37.2283 92.3742 39.228 89.7114 40.6282C89.7604 39.8476 91.4055 38.6075 92.2281 37.9874C96.564 34.9011 104.336 32.3664 108.907 36.2358C114.328 40.8302 113.803 49.1936 110.212 54.6776C104.366 47.9294 102.83 59.9237 99.8248 63.2055C98.3332 63.7836 96.0344 59.3851 94.3127 60.0607L96.2089 58.3885C94.0067 57.8024 93.1071 59.6491 91.4759 60.6662C91.8869 61.2518 92.9326 60.6457 93.5946 60.7992C94.5912 60.9738 96.7369 64.243 96.2138 65.4416L97.8656 65.8813C96.3939 69.7071 92.332 64.8621 90.6458 63.1889C90.4368 62.9519 90.6879 62.5199 90.3603 62.3873C89.6008 62.0038 88.5761 62.2753 87.8791 62.6794C87.37 63.655 89.4747 64.011 90.0112 64.3805C91.0844 65.1196 92.4291 66.8833 93.5997 67.8524C94.9794 69.0585 96.4499 68.815 95.5153 71.2193L91.0905 68.5905C90.3304 69.9981 93.6122 73.0029 93.5982 73.2259C93.5142 74.564 92.7196 74.7381 91.897 75.3582C91.5415 75.6717 90.5374 77.3999 90.6424 75.7272C90.6774 75.1697 91.1584 74.6401 90.5243 74.0405C89.7923 75.0021 88.7402 73.9285 88.5587 75.0366L88.2731 74.235L86.9069 74.5971C86.9069 74.5971 86.6219 72.0043 86.0294 72.5268L85.2763 73.823C85.6183 71.9413 83.4386 65.6471 83.7457 64.323L85.2039 58.929L85.3223 58.8245ZM100.037 50.9042C101.821 52.8074 103.676 50.0132 103.105 48.41C102.722 47.3784 99.5298 46.5063 98.5192 46.5548C97.5086 46.6033 93.8978 48.8395 94.1973 49.4181C94.4898 50.1081 95.1173 49.0281 95.5704 48.9446C96.9225 48.8056 99.2503 49.1756 99.3753 50.7508C98.4832 50.6948 97.6261 50.0811 96.741 49.9136C96.0719 49.8716 94.3993 49.7666 93.9112 50.4077C95.2354 50.7147 98.8662 51.7263 98.0921 53.357L95.4508 52.6314C95.4708 55.8792 102.169 54.3966 100.037 50.9042Z" fill="#B2A221"/>
<path d="M90.0311 87.2096C90.1431 85.4254 90.2412 83.8642 92.3529 84.1088L92.2829 85.2239L95.3917 83.8518L94.5271 85.1409C101.086 82.3061 107.555 79.1298 108.387 71.2336C108.499 69.4494 108.018 68.1878 108.688 66.4386C109.671 63.2538 111.309 62.1251 112.697 59.6374C119.614 47.5332 114.225 29.9544 97.8946 31.504C89.6772 32.2195 84.8668 37.5151 79.0737 42.4131C76.9475 44.1827 74.1522 45.9104 72.242 47.8056C70.4573 49.4848 69.4041 51.9935 67.4174 53.3241C72.0754 45.1083 78.5592 38.1266 86.506 32.8041C98.5447 24.7158 111.786 27.7862 117.295 41.6781C121.933 53.3883 116.158 68.6988 108.524 77.9592C104.411 82.8507 96.8263 87.7482 90.3656 87.2306L90.0311 87.2096Z" fill="#6C671E"/>
<path d="M87.3536 81.6757C87.3536 81.6757 85.6944 83.1388 85.1368 83.1038C80.8714 83.2838 77.3111 79.366 75.9809 75.5881C75.7429 79.3795 79.0453 83.841 82.7876 84.8596C82.7526 85.4171 81.4215 85.2216 80.9754 85.1936C75.5814 83.7354 72.6422 77.0577 72.6297 71.9072C72.6372 70.0045 72.6797 67.5443 74.2134 66.2972L74.1434 67.4123L75.0915 66.5762L75.4395 68.1653C75.907 66.0676 76.5836 64.207 77.6992 62.4858C78.4518 62.9809 77.1413 64.2419 76.9807 65.0155C76.1921 68.6604 76.2536 73.0303 78.1763 76.2856C79.6949 78.8439 84.2098 83.6054 87.3536 81.6757Z" fill="#B2A221"/>
<path d="M164.628 63.4194C164.244 64.1789 162.544 62.7288 161.923 63.6974C160.431 66.0666 167.666 66.7447 168.76 67.1492L168.544 65.2325C174.008 67.3668 179.708 69.292 184.168 73.1544C183.686 75.4751 180.32 73.8084 178.662 73.4804L156.348 63.3473C156.613 62.6923 157.686 63.4314 158.244 63.4664C158.69 63.4944 159.045 63.1809 159.401 62.8673L158.579 61.6961L164.412 63.2938L164.628 63.4194ZM176.781 71.3472C176.781 71.3472 177.736 70.3996 177.318 69.9256L174.07 68.1544C171.818 70.1401 175.386 72.1553 176.781 71.3472Z" fill="#B2A221"/>
<path d="M79.9864 13.5839C79.9864 13.5839 79.7143 14.3505 79.3518 14.7755C77.6926 16.2387 65.879 17.1763 63.5512 16.8062C62.1156 16.4922 62.7081 15.9696 63.5376 15.2381C66.626 12.4093 76.1604 12.1123 80.0908 13.7024L79.9864 13.5839ZM73.4143 13.0594C72.6337 13.0104 69.1208 13.6854 69.0648 14.5775C70.7714 17.7073 78.8783 13.4024 73.4143 13.0594Z" fill="#B2A221"/>
<path d="M105.938 62.0959C106.53 63.3645 100.241 70.8062 99.0422 72.0743C98.6796 72.4994 97.9476 73.461 97.39 73.4259C99.0292 68.715 102.194 64.6596 103.283 59.8021L105.945 61.9843L105.938 62.0959Z" fill="#B2A221"/>
<path d="M83.6786 15.3851L83.9647 14.3955C88.7877 14.2505 94.7532 15.5206 96.8079 20.2395C95.0022 22.2532 83.9641 16.1867 83.6786 15.3851ZM94.8221 17.9879C93.9651 17.3743 89.5191 15.08 88.9961 16.2787C89.1976 18.4184 92.1945 18.8305 93.8532 19.1585L94.3132 18.9634L94.7107 17.9809L94.8221 17.9879Z" fill="#B2A221"/>
<path d="M130.461 117.271L129.541 119.453L131.485 120.582L132.391 118.624L133.716 118.931L132.474 120.868C134.718 122.577 135.583 119.496 137.764 120.417L137.812 123.219L136.899 123.497L135.952 122.542L128.488 120.17L128.077 119.585L129.332 117.424L130.447 117.494L130.461 117.271Z" fill="#B2A221"/>
<path d="M60.8048 17.7356L61.7943 18.0216L55.4237 19.6367C56.3438 19.2467 56.9369 16.933 57.1739 16.724C57.7735 16.0899 60.8053 15.9444 61.6488 14.9898L60.8048 17.7356Z" fill="#B2A221"/>
<path d="M119.138 112.185C119.611 115.349 117.172 114.972 115.13 113.612L116.19 110.992L119.026 112.178L119.138 112.185Z" fill="#B2A221"/>
<path d="M127.917 116.763C129.129 118.855 124.438 120.463 123.86 117.18C124 114.95 127.31 115.718 127.917 116.763Z" fill="#B2A221"/>
<path d="M108.405 106.594C108.759 109.862 106.452 109.158 104.397 108.021L105.924 105.095L108.405 106.594Z" fill="#B2A221"/>
<path d="M119.817 115.607L121.183 113.453C122.075 113.509 123.936 114.186 123.985 115.197C123.384 117.622 121.28 117.266 119.817 115.607Z" fill="#B2A221"/>
<path d="M69.5696 58.2681C68.984 58.6791 68.9147 58.0031 69.0542 57.5641C69.4522 54.7903 71.8994 51.4735 74.6317 50.7494C73.014 53.3347 70.6508 55.3133 69.6812 58.2751L69.5696 58.2681Z" fill="#B2A221"/>
<path d="M147.143 124.377L145.38 123.931C144.76 124.899 146.446 124.781 146.397 125.562C146.299 127.123 142.62 125.101 141.714 125.268C141.791 124.041 142.62 125.101 142.982 124.676C143.345 124.251 143.527 123.142 144.314 123.08C145.199 123.247 146.879 123.241 147.025 124.482L147.143 124.377Z" fill="#B2A221"/>
<path d="M92.3516 94.8315C90.8115 94.3989 92.2536 96.3926 92.9092 94.8665L94.3167 95.6265L92.3717 98.0793L90.1629 95.8135L91.209 93.4164L92.3516 94.8315Z" fill="#B2A221"/>
<path d="M142.776 122.545C141.933 123.499 141.619 124.935 140.281 124.851L140.706 123.422C139.299 122.662 139.291 124.565 137.995 123.812L139.494 121.331L142.776 122.545Z" fill="#B2A221"/>
<path d="M157.051 61.0852L154.64 62.0533L154.778 63.4054L151.28 62.0662L153.03 60.9447L152.208 59.7735L157.051 61.0852Z" fill="#B2A221"/>
<path d="M87.7515 89.6284C88.8661 91.4896 85.2902 93.1683 84.6496 90.889C84.0161 88.4983 86.8389 88.1157 87.7515 89.6284Z" fill="#B2A221"/>
<path d="M89.5554 92.9955L90.5034 92.1594L91.019 92.8635L89.3038 95.2187C88.0912 94.9187 88.5027 93.7131 88.7818 92.835L88.1612 93.8036L86.8651 93.0505L88.6987 90.5907C89.8068 90.7723 89.6044 92.2149 89.5554 92.9955Z" fill="#B2A221"/>
<path d="M85.2252 42.4521C84.9251 43.6647 78.8186 48.2072 77.9895 47.1476C79.1816 45.991 80.5827 45.0714 81.9838 44.1518C82.9179 43.5387 84.2146 42.5006 85.2252 42.4521Z" fill="#B2A221"/>
<path d="M97.6626 99.4206C97.6626 99.4206 97.5575 101.093 98.6661 99.4836L99.4118 100.09L97.8845 103.017L96.895 102.731L98.1362 100.794L96.7209 101.936C95.1042 100.939 95.7248 99.9706 96.9169 98.814C97.2655 98.612 97.565 99.1906 97.774 99.4276L97.6626 99.4206Z" fill="#B2A221"/>
<path d="M99.9486 103.958C101.363 104.607 101.399 102.258 101.517 102.154L102.507 102.44C101.76 105.416 100.478 106.231 98.6385 103.428L100.228 101.289C101.545 101.708 99.7747 103.164 99.8372 103.951L99.9486 103.958Z" fill="#B2A221"/>
<path d="M109.23 109.459L110.387 110.651L108.282 110.295L109.342 107.675C110.987 108.226 113.503 109.168 110.972 110.24L109.23 109.459Z" fill="#B2A221"/>
<path d="M105.282 104.608L103.671 107.082L103.539 105.618C102.229 105.088 103.218 107.165 101.49 106.161L103.344 103.367L105.282 104.608Z" fill="#B2A221"/>
<path d="M115.338 110.294C116.042 111.569 113.554 110.182 113.554 110.182L114.049 111.22L112.934 111.15L113.944 112.893L111.324 111.833L113.039 109.478C113.039 109.478 115.241 110.064 115.45 110.301L115.338 110.294Z" fill="#B2A221"/>
<path d="M64.1018 68.6757C62.5551 66.5635 63.8872 63.1767 65.0238 61.121L64.1018 68.6757Z" fill="#B2A221"/>
<path d="M107.462 59.1887C106.821 58.7006 106.905 57.3625 106.271 56.763C105.846 56.4004 105.379 56.7069 104.821 56.6719L105.568 55.4873C108.132 55.6484 108.257 57.2234 107.455 59.3001L107.462 59.1887Z" fill="#B2A221"/>
<path d="M85.2611 45.468C83.7064 47.0496 81.8103 48.7217 79.4335 49.1322L82.9679 46.3315L85.2611 45.468Z" fill="#B2A221"/>
<path d="M71.3931 59.4741C70.6405 58.9791 70.8985 58.4356 71.1565 57.892C71.6866 56.5819 72.9698 53.9756 74.4474 53.6206C73.2133 55.4462 72.1951 57.3974 71.3931 59.4741Z" fill="#B2A221"/>
<path d="M149.093 80.8344C156.647 81.7565 148.622 91.888 146.21 94.6473C144.049 96.9745 141.302 99.7127 138.076 97.607C134.85 95.5013 137.938 90.8813 139.431 88.5121C141.299 85.4948 144.981 80.3523 149.093 80.8344ZM149.949 83.2391L148.869 82.6116C144.937 86.395 139.834 91.0004 138.927 96.5409C139.47 96.7989 139.693 96.8129 140.265 96.6249C140.613 96.4229 144.225 92.3955 144.824 91.7615C145.912 90.4863 150.416 84.7238 149.942 83.3507L149.949 83.2391Z" fill="black"/>
<path d="M127.196 92.5521C126.478 91.4995 126.841 89.2833 127.253 88.0777C127.937 86.1055 132.203 80.5519 133.758 78.9702C134.832 77.9181 137.272 76.504 138.833 76.602C139.167 76.623 141.878 78.0247 142.087 78.2617C144.198 80.2974 139.429 86.715 138.091 88.4222C136.877 89.9133 133.162 93.8223 131.252 93.9263C130.471 93.8773 127.719 93.1446 127.307 92.5591L127.196 92.5521ZM139.905 79.1323L138.825 78.5047C137.822 78.4417 133.471 83.5422 132.732 84.6153C132 85.5769 127.119 91.9876 129.433 92.5806C131.162 91.7936 132.479 90.4209 133.804 88.9367C134.892 87.6616 140.281 80.2754 139.905 79.1323Z" fill="black"/>
<path d="M134.943 74.3543C131.896 78.3052 128.375 82.6741 125.649 86.869C124.91 87.9421 124.178 88.9037 123.975 90.3463L119.926 88.8607C122.178 86.875 124.116 84.5337 125.839 82.067C127.561 79.6003 129.889 76.388 130.517 73.5167C132.142 72.6112 133.396 74.0333 134.943 74.3543Z" fill="black"/>
<path d="M145.485 111.504C147.541 110.849 152.573 112.733 152.056 115.611C150.96 122.371 140.89 120.507 142.578 115.016C142.85 114.249 144.802 111.685 145.374 111.497L145.485 111.504ZM148.816 113.728C148.231 112.348 145.316 117.763 145.392 118.327C145.992 119.484 149.108 114.418 148.816 113.728Z" fill="black"/>
<path d="M155.982 74.5526C156.065 76.7968 153.577 77.2004 154.782 79.4031C156.371 79.0551 156.72 77.0619 157.578 75.8843C158.937 75.6338 165.048 78.1445 161.835 79.3981L161.898 78.3945C160.637 77.0839 157.521 80.3587 160.05 81.0773C161.695 81.6283 163.919 80.0887 163.912 78.4091L165.87 79.3157L164.782 84.1731C164.071 84.8001 163.249 83.629 162.468 83.58L163.242 81.9494C162.036 81.5379 161.681 81.8513 161.827 83.0919C157.192 82.0173 156.621 80.4142 159.884 76.5888C157.801 75.8982 156.712 78.9646 156.942 80.6583C155.172 80.3232 152.099 79.3466 153.138 77.0608L152.043 78.4475L150.273 78.1124L152.609 74.7887L152.707 73.2275L155.982 74.5526Z" fill="black"/>
<path d="M138.431 108.023C146.104 108.841 143.362 118.633 135.537 114.895C132.275 113.347 134.201 107.646 138.431 108.023ZM139.887 109.794C138.354 109.25 136.074 113.473 137.035 114.205C137.683 114.582 138.095 113.376 138.346 112.944C138.967 111.975 139.594 110.895 139.894 109.683L139.887 109.794Z" fill="black"/>
<path d="M105.874 97.0208L105.783 98.4704C108.159 98.0599 108.814 98.3249 110.27 100.096L109.657 100.953L111.797 100.751C113.476 102.536 113.866 103.456 116.508 102.39C116.731 102.404 116.577 103.066 116.779 103.415C117.093 103.771 120.124 105.416 120.89 105.688C122.528 106.351 123.49 105.292 123.629 108.435C122.848 108.386 122.897 107.605 122.242 107.34C121.692 107.194 121.009 107.375 120.458 107.228C120.123 107.207 116.423 105.52 116.207 105.394C115.887 105.15 116.047 104.377 115.726 104.133C114.967 103.749 111.12 104.403 112.054 101.999L110.228 102.556L108.096 99.0635C107.33 98.7915 103.949 100.93 104.598 97.7244L101.713 97.3193L104.452 94.6925L104.535 96.9368L105.874 97.0208Z" fill="black"/>
<path d="M130.001 56.8016C126.125 61.484 129.93 63.2903 130.642 57.2897L134.447 59.0958L134.732 61.6886C135.624 61.7447 135.82 60.4135 135.638 59.7304L137.597 60.637L134.654 64.7064C132.877 64.4829 133.324 62.7197 133.296 61.3746C132.181 61.3045 132.501 63.3397 132.39 63.3327L130.432 62.4262C131.38 61.5901 133.38 60.0364 132.356 58.5168C130.411 60.9695 129.776 63.9523 126.508 60.7245L128.043 55.895L130.001 56.8016Z" fill="black"/>
<path d="M135.482 106.86C134.646 107.703 132.75 109.375 132.352 110.358C131.969 111.118 132.916 112.073 132.295 113.041C131.292 112.978 126.706 111.123 126.763 110.231C126.819 109.339 128.017 109.862 128.484 109.555C128.84 109.242 129.119 108.364 129.593 107.946C129.865 107.179 128.652 106.879 128.694 106.21C128.722 105.764 129.21 105.123 129.545 105.144L135.601 106.756L135.482 106.86Z" fill="black"/>
<path d="M151.037 71.2363C149.81 71.1593 149.657 70.0302 149.72 69.0266C148.424 68.2735 149.086 70.2182 148.967 70.3227L147.009 69.4161L148.996 66.2944C147.295 66.6354 147.101 64.3842 146.097 66.1123L146.933 67.0604L145.176 68.2935L147.093 68.078L145.775 69.4506L143.267 68.3975C142.556 67.2334 143.992 67.5475 144.354 67.1224C145.072 66.3839 145.275 64.9412 145.561 63.9516C146.732 64.9207 152.237 66.3859 152.627 67.306C153.115 68.4561 150.02 69.6051 150.918 71.3408L151.037 71.2363Z" fill="black"/>
<path d="M145.281 71.9653C145.936 72.2303 146.02 70.8922 146.361 70.8017C146.822 70.6067 148.118 71.3597 148.787 71.4018C148.724 72.4054 148.09 71.8058 147.846 72.1263C147.232 72.9834 146.109 74.816 146.046 75.8196L144.43 74.8225L145.657 73.1084L143.426 74.7595L144.159 72.0067L142.764 74.606C139.99 74.208 143.337 70.8357 144.09 69.5396C145.407 69.9581 145.922 70.6622 145.281 71.9653Z" fill="black"/>
<path d="M142.336 68.9937C141.241 70.3804 141.018 72.1575 141.025 73.8372L139.178 72.9376L139.84 71.3L138.412 70.8744C138.592 73.3486 137.54 72.275 136.007 71.731L139.904 68.5052C140.831 68.0037 141.465 68.6032 142.336 68.9937Z" fill="black"/>
<path d="M143.776 103.112C148.146 103.051 143.544 110.375 141.621 107.119C140.716 105.495 141.985 103.112 143.776 103.112Z" fill="black"/>
<path d="M131.353 63.8481C134.984 64.8597 132.411 70.1837 129.449 69.2141C126.271 68.119 128.663 63.9031 131.353 63.8481ZM130.955 68.4131C131.805 67.3469 132.447 66.0438 131.402 64.8587C129.331 65.7363 127.728 68.0985 130.955 68.4131Z" fill="black"/>
<path d="M162.9 76.6511L160.754 75.1729L161.869 75.2429C162.288 73.9258 161.256 74.3089 160.371 74.1413L160.301 75.2564L158.782 74.4893C159.751 73.3187 161.459 72.8662 161.891 71.326C165.474 71.327 163.152 74.4278 163.005 76.7695L162.9 76.6511Z" fill="black"/>
<path d="M118.477 92.3597C120.902 92.9598 118.134 97.8237 115.66 96.213C114.371 95.3484 117.048 91.9341 118.477 92.3597Z" fill="black"/>
<path d="M152.397 72.7685L151.073 74.2527L151.143 73.1376L150.02 73.179C149.908 74.9632 149.929 74.6287 148.64 75.5553L150.41 75.8903L149.88 77.2004L146.709 75.9938C147.581 74.5932 149.212 73.5761 148.989 71.7709L152.404 72.657L152.397 72.7685Z" fill="black"/>
<path d="M135.114 68.1032L136.097 68.5007L135.49 69.2463L134.521 68.6257L133.622 70.4725L131.984 69.8098C133.183 68.5417 134.041 67.3641 134.041 65.5729C134.752 64.9459 137.136 66.2151 137.526 67.1351L136.48 67.7412L135.86 66.9186L134.996 68.2078L135.114 68.1032Z" fill="black"/>
<path d="M156.638 69.4382L155.523 69.3682C155.453 68.6921 155.495 68.023 154.554 68.7476C154.171 69.5072 155.808 70.1698 155.759 70.9504C155.633 72.9576 152.497 72.9846 151.828 71.1514C151.522 70.6843 152.136 69.8272 152.582 69.8552C153.028 69.8832 153.856 72.734 154.616 71.3264C155.007 70.4553 153.23 70.2318 153.202 68.8867C153.21 66.984 157.092 67.5635 156.638 69.4382Z" fill="black"/>
<path d="M171.246 77.4244C170.438 77.8214 170.529 76.3718 170.327 76.0233L170.229 77.5844L168.668 77.4864L168.242 78.915L169.671 79.3406L169.385 80.3302L166.472 78.58C167.664 77.4234 168.633 76.2528 169.073 74.6011L171.679 75.8842C171.679 75.8842 171.358 77.4314 171.246 77.4244Z" fill="black"/>
<path d="M144.909 63.6448L144.072 64.4879L142.657 63.8393L141.66 67.2471L139.235 66.6471L141.549 63.6578L140.107 63.4552L140.414 62.1311L144.909 63.6448Z" fill="black"/>
<path d="M160.858 71.7287C159.813 72.3347 160.176 70.1184 159.451 70.9685C158.726 71.8186 158.098 72.8988 158.474 74.0419L156.049 73.4418L158.378 70.2295L156.802 70.3545L157.228 68.9258C158.016 68.8633 162.483 70.8231 160.97 71.7356L160.858 71.7287Z" fill="black"/>
<path d="M174.352 79.7083C173.236 79.6383 173.815 79.3387 173.85 78.7812C173.878 78.3351 172.993 78.1676 172.874 78.2721C171.829 78.8782 174.651 80.2869 172.657 81.729C171.486 82.5511 168.009 80.8774 170.316 79.7908L170.274 80.4598L171.905 81.234C172.644 80.1608 171.32 79.8537 171.355 79.2962C171.439 76.1669 175.419 76.9765 174.254 79.4782L174.352 79.7083Z" fill="black"/>
<path d="M166.714 74.772C166.295 76.0891 165.145 76.5766 165.382 78.1588L163.424 77.2522L166.205 73.9564L164.568 73.2938C165.411 72.3392 168.659 74.1104 168.617 74.7795L167.899 75.5181L166.818 74.8905L166.714 74.772Z" fill="black"/>
<path d="M122.281 99.5115L122.372 98.0619C123.18 97.6649 123.173 99.5675 123.758 99.1565C124.225 98.8499 123.828 98.0414 123.396 97.7904L124.985 97.4423L125.041 96.5502L123.508 96.0062C129.349 93.91 124.378 101.77 122.281 99.5115Z" fill="black"/>
<path d="M139.889 61.5447C139.129 62.9523 137.721 63.9834 137.936 65.9001L135.65 64.861C135.713 63.8574 136.459 64.4639 136.947 63.8229C137.435 63.1818 137.972 61.7602 137.798 60.9656L139.889 61.5447Z" fill="black"/>
<path d="M121.12 98.428L118.388 97.3609C118.681 96.2598 120.34 96.5878 121.072 95.6262C121.197 95.4102 121.218 95.0757 121.344 94.8597L120.375 94.2391C121.497 94.1976 122.626 94.0445 122.982 95.5222L120.848 97.4034L121.106 98.651L121.12 98.428Z" fill="black"/>
<path d="M138.999 100.7C138.957 101.369 138.511 101.341 138.162 101.543C137.458 102.058 135.708 103.18 135.004 103.695C134.537 104.002 134.182 104.315 133.638 104.057L136.608 101.333C137.34 100.372 134.392 100.97 135.256 99.6809L139.11 100.707L138.999 100.7Z" fill="black"/>
<path d="M134.813 99.6357C134.813 99.6357 131.522 103.907 130.247 102.819C130.038 102.582 132.958 100.639 133.216 100.095C133.858 98.792 130.972 100.178 131.279 98.854C132.45 98.032 133.733 99.0081 134.813 99.6357Z" fill="black"/>
<path d="M138.988 106.289L138.033 105.446C138.222 104.226 140.397 103.467 139.373 101.947C143.597 100.645 139.985 104.673 138.988 106.289Z" fill="black"/>
<path d="M130.59 97.3463C130.59 97.3463 128.128 102.677 126.526 101.457C128.596 100.58 128.172 96.6348 130.59 97.3463Z" fill="black"/>
<path d="M114.991 90.8861L112.928 91.6521L113.75 92.8233L112.426 92.5162L111.436 94.0214C110.516 92.6202 112.273 91.3871 112.789 90.3C113.612 89.68 114.336 90.6211 114.991 90.8861Z" fill="black"/>
<path d="M111.287 89.2037L109.697 89.5518L110.192 90.5904C109.307 90.4229 107.459 93.1056 106.853 92.06C106.644 91.823 110.095 86.778 111.287 89.2037Z" fill="black"/>
<path d="M63.0309 32.2083C67.8119 32.7323 68.1315 36.5588 66.2208 40.2451C64.3101 43.9315 59.1025 48.4184 54.7951 49.2674C52.2998 49.7825 46.6963 49.8785 46.8088 46.3031C47.0684 40.386 57.1419 31.5027 63.038 32.0967L63.0309 32.2083ZM61.1763 35.0026C57.1619 34.7505 49.7166 41.0001 49.8061 44.924C49.8961 47.0567 54.8516 46.5842 56.2177 46.2222C59.2915 45.4076 64.952 40.8371 64.3815 37.4428C64.131 36.0836 62.5145 35.0866 61.1763 35.0026Z" fill="black"/>
<path d="M38.4991 59.2377C37.614 59.0702 36.7638 58.3451 35.9902 58.1845C35.4327 58.1495 31.2088 59.4517 31.1183 59.1101C32.562 55.7303 32.8125 57.0895 35.0287 57.4525C36.6874 57.7805 42.291 57.6845 44.5212 57.8245C45.5248 57.8875 46.8215 56.8494 48.2781 56.8289C48.8357 56.8639 52.627 57.102 52.9616 57.123L54.7312 59.2492C53.5951 59.5137 52.6544 58.4471 51.5463 58.2656C50.3197 58.1886 48.598 58.8642 47.4759 58.9057C46.6953 58.8566 45.8313 58.3546 45.1552 58.4241C44.5977 58.3891 44.2002 59.3717 43.7471 59.4552C43.4126 59.4342 42.7785 58.8347 42.1164 58.6811C41.6703 58.6531 38.7711 58.4711 38.6596 58.4641C38.4365 58.4501 38.6245 59.0216 38.3945 59.1191C39.7186 59.4262 40.8477 59.2732 42.1648 59.6917C47.2033 61.4634 43.062 66.8009 39.3541 67.0159C38.3435 67.0644 33.2209 66.6309 32.6774 66.3729C30.5242 65.0062 33.3965 62.052 34.8047 61.0209C35.9758 60.1988 37.335 59.9482 38.5131 59.0146L38.4991 59.2377ZM40.1641 61.2454C39.2931 60.8548 39.4881 61.3149 39.1326 61.6284C37.8359 62.6665 36.7413 64.0531 36.4133 65.7118C36.9008 66.8619 40.4498 62.0469 40.2828 61.1408L40.1641 61.2454Z" fill="black"/>
<path d="M51.9252 61.0928C54.0439 61.2259 56.7478 62.739 56.1407 65.2758C55.5687 67.255 51.5536 68.7942 49.6509 68.7866C38.6598 69.1041 44.691 60.4147 51.9252 61.0928ZM52.3918 62.5775C50.8726 61.8105 47.5048 67.3085 47.7068 67.657C48.5779 68.0475 48.3828 67.5875 48.7384 67.2739C50.272 66.0268 51.4992 64.3127 52.3848 62.689L52.3918 62.5775Z" fill="black"/>
<path d="M33.2508 60.8152C32.8533 61.7978 31.8007 62.5154 31.4032 63.498C31.1242 64.376 31.3956 65.4007 30.803 65.9232C29.7504 66.6408 26.0916 66.0752 24.893 65.5522C26.3501 63.7405 27.6118 63.2599 26.9992 60.5347L33.2578 60.7037L33.2508 60.8152Z" fill="black"/>
<path d="M58.6429 55.8096C58.5799 56.8132 58.2734 56.3462 57.7088 56.4227C54.7675 56.9097 51.9103 56.0586 48.997 56.0996C47.5473 56.0085 38.1034 56.6471 37.7968 56.18C38.7869 54.6749 39.895 54.8565 41.4701 54.7315C46.9762 54.4054 53.2279 54.686 58.6429 55.8096Z" fill="black"/>
<path d="M58.23 53.4156L56.9264 54.5652C53.2745 53.8881 49.2461 53.8591 45.4407 53.8441C43.092 53.8086 40.6943 54.5537 38.5061 53.7447C40.8343 52.3235 44.8417 52.6871 47.6435 52.6391C51.1213 52.5216 55.1707 52.216 58.223 53.5271L58.23 53.4156Z" fill="black"/>
<path d="M79.6885 27.2212C80.7831 25.8346 80.449 24.0224 82.2891 23.2424L83.2787 23.5283C84.7558 24.9645 81.6467 28.1278 79.6885 27.2212Z" fill="black"/>
<path d="M50.6434 31.6414L51.2914 32.0179L47.6596 34.5886C47.5976 32.0099 49.6263 30.0101 52.2121 29.8366L50.6434 31.6414Z" fill="black"/>
<path d="M74.2339 21.3846C74.2339 21.3846 70.3505 26.1786 69.0473 25.537C69.2429 24.2059 70.8251 23.9694 71.5572 23.0078L70.923 22.4082L71.4461 21.2096L74.2339 21.3846Z" fill="black"/>
<path d="M77.7861 21.9349C77.7861 21.9349 73.8748 27.1749 73.0597 25.8923C73.3598 24.6797 74.8303 24.4361 75.2349 23.342C75.6324 22.3594 73.8134 22.8049 74.4199 22.0594C74.908 21.4183 77.0126 21.7744 77.7791 22.0464L77.7861 21.9349Z" fill="black"/>
<path d="M70.6924 20.7303C69.2422 22.4305 68.4748 25.7408 65.8335 25.0153L68.8033 22.291L67.6882 22.221C68.0022 20.7853 69.3823 20.2002 70.6924 20.7303Z" fill="black"/>
<path d="M52.0877 33.5363L52.7999 29.327L53.7194 30.728L55.7061 29.3975C55.0435 31.0351 53.6909 32.9653 51.9692 33.6409L52.0877 33.5363Z" fill="black"/>
<path d="M62.2288 21.8657C61.7753 23.7404 60.0182 26.7646 57.7045 26.1716L59.0991 23.5723L59.4471 25.1615C59.8446 24.1789 60.4722 23.0988 61.1973 22.2487C61.5598 21.8237 61.3647 21.3636 62.2358 21.7542L62.2288 21.8657Z" fill="black"/>
<path d="M54.3093 24.9372C54.2603 25.7178 53.3682 25.6618 53.1171 26.0938C52.8731 26.4144 53.061 26.9859 52.566 27.7385C52.2034 28.1635 51.1439 28.9926 50.5723 29.1806C51.2419 27.4315 51.8631 24.6717 54.3093 24.9372Z" fill="black"/>
<path d="M78.0613 26.4397L77.0718 26.1537C77.2393 25.2686 77.8388 24.6345 78.2224 23.8749C78.8499 22.7948 77.8464 22.7318 80.3207 22.5513L78.18 26.3352L78.0613 26.4397Z" fill="black"/>
<path d="M56.6906 24.4426L55.7285 25.5017L56.237 26.3173C56.237 26.3173 53.6298 28.6164 53.2258 27.9194C53.2608 27.3618 56.0915 23.2855 56.802 24.4496L56.6906 24.4426Z" fill="black"/>
<path d="M34.714 55.2689L36.3031 54.9209L36.2331 56.036L32.1767 56.453C31.9747 56.1045 34.1288 53.8888 34.9999 54.2793L34.714 55.2689Z" fill="black"/>
<path d="M66.9891 20.9225C66.9891 20.9225 65.455 23.9608 65.0855 24.4974C64.7229 24.9224 64.918 25.3824 64.0469 24.9919C64.2839 24.7829 66.2925 19.5354 66.9891 20.9225Z" fill="black"/>
<path d="M64.6111 21.3613C64.6111 21.3613 61.9684 26.0093 61.1878 25.9603C61.4388 25.5282 63.9216 19.8627 64.6111 21.3613Z" fill="black"/>
<path d="M100.037 50.8826C102.169 54.375 95.5822 55.8646 95.4507 52.6098L98.092 53.3354C98.8661 51.7047 95.2352 50.6931 93.9111 50.3861C94.3921 49.8566 96.0718 49.85 96.7409 49.892C97.633 49.948 98.4901 50.5616 99.3752 50.7292C99.2502 49.154 96.9224 48.784 95.5703 48.923C95.1242 48.895 94.4967 49.975 94.1972 49.3965C93.8977 48.8179 97.5085 46.5817 98.5191 46.5332C99.5297 46.4847 102.833 47.3638 103.104 48.3884C103.676 49.9916 101.821 52.7858 100.037 50.8826Z" fill="black"/>
<path d="M176.782 71.3776C175.276 72.1787 171.819 70.1705 174.071 68.1848L177.319 69.956C177.319 69.956 177.242 71.1826 176.782 71.3776Z" fill="black"/>
<path d="M73.4123 13.0585C78.8763 13.4016 70.7695 17.7064 69.0628 14.5766C69.1188 13.6845 72.7432 13.0165 73.4123 13.0585Z" fill="black"/>
<path d="M94.8249 17.9765L94.4273 18.9591L93.9674 19.1541C92.1972 18.8191 89.2004 18.407 89.1104 16.2743C89.738 15.1942 94.0794 17.37 94.9365 17.9835L94.8249 17.9765Z" fill="black"/>
<path d="M149.95 83.217C150.423 84.5902 145.919 90.3527 144.832 91.6278C144.344 92.2689 140.621 96.2894 140.272 96.4914C139.805 96.7979 139.471 96.7769 138.934 96.4074C139.849 90.7553 144.945 86.2613 148.877 82.478L149.957 83.1056L149.95 83.217Z" fill="#B2A221"/>
<path d="M139.908 79.1532C140.284 80.2963 134.895 87.6824 133.807 88.9576C132.594 90.4487 131.276 91.8214 129.436 92.6015C127.122 92.0084 132.003 85.5978 132.735 84.6362C133.586 83.5701 137.936 78.4695 138.828 78.5256L139.908 79.1532Z" fill="#B2A221"/>
<path d="M148.821 113.726C149.002 114.409 145.885 119.475 145.397 118.325C145.432 117.767 148.235 112.346 148.821 113.726Z" fill="#B2A221"/>
<path d="M139.883 109.812C139.583 111.024 139.074 112 138.335 113.073C138.084 113.505 137.679 114.599 137.024 114.334C136.069 113.49 138.343 109.379 139.876 109.923L139.883 109.812Z" fill="#B2A221"/>
<path d="M130.954 68.4041C127.72 68.201 129.33 65.7273 131.401 64.8497C132.446 66.0348 131.804 67.338 130.954 68.4041Z" fill="#B2A221"/>
<path d="M61.1793 34.9896C62.5174 35.0736 64.134 36.0707 64.3845 37.4298C64.948 40.9357 59.2875 45.5061 56.2207 46.2092C54.7431 46.5642 49.7806 47.1482 49.8091 44.911C49.7196 40.9871 57.2834 34.6331 61.1793 34.9896ZM58.9605 43.5824C61.0932 43.4924 64.7816 38.2384 62.7399 36.8787C60.3356 35.9441 56.9343 36.6262 54.8221 38.1729C54.4736 38.3749 52.2148 40.4721 53.811 40.0126C54.8356 39.741 55.2192 38.9815 56.1738 39.8251C56.3688 40.2851 53.7755 42.3613 54.1866 42.9469C54.4931 43.4139 55.7476 43.0449 55.9082 42.2713L56.2427 42.2923C55.7266 43.3794 57.7199 43.7284 58.208 43.0874L58.4939 42.0978L57.8598 41.4982L59.6166 40.2651L57.9229 40.4947C58.0139 39.045 60.9343 38.8925 62.1329 39.4155C60.6062 40.5511 59.5396 41.4918 58.863 43.3524L58.9605 43.5824ZM52.9739 42.6468C53.079 40.9741 55.051 41.6578 55.4696 40.3406C53.3509 40.2076 51.4897 41.3222 50.9106 43.4129C49.906 46.9322 56.0396 45.5261 57.6778 44.3975L55.4826 43.6999L52.6949 43.5249L53.7614 42.5843L52.9809 42.5353L52.9739 42.6468Z" fill="#6C671E"/>
<path d="M40.1649 61.2315C40.4505 62.0331 36.9017 66.8481 36.2956 65.8024C36.6237 64.1438 37.7183 62.7572 39.0149 61.7191C39.3705 61.4055 39.2939 60.841 40.0465 61.336L40.1649 61.2315Z" fill="#B2A221"/>
<path d="M52.3973 62.5596C51.5047 64.2947 50.2775 66.0089 48.7509 67.1445C48.3953 67.458 48.4719 68.0225 47.7193 67.5275C47.6288 67.1859 50.8851 61.6809 52.4043 62.448L52.3973 62.5596Z" fill="#B2A221"/>
<path d="M58.958 43.6038C59.6345 41.7431 60.8127 40.8095 62.2278 39.6669C61.0292 39.1438 58.109 39.2964 58.018 40.746L59.7116 40.5165L57.955 41.7497L58.589 42.3492L58.3029 43.3388C57.8079 44.0914 55.7032 43.7353 56.3308 42.6552L55.9963 42.6342C55.9543 43.3033 54.581 43.7768 54.2815 43.1982C53.8775 42.5011 56.4638 40.5364 56.2688 40.0764C55.3142 39.2328 54.9305 39.9925 53.9059 40.264C52.3098 40.7235 54.5685 38.6263 54.9171 38.4242C57.0293 36.8776 60.4376 36.0841 62.8348 37.1302C64.8765 38.4898 61.1883 43.7439 59.0556 43.8339L58.958 43.6038Z" fill="black"/>
<path d="M52.9738 42.6688L53.7543 42.7178L52.6877 43.6584L55.4755 43.8334L57.6777 44.4195C56.0395 45.5481 49.9059 46.9542 50.9105 43.4348C51.4965 41.2326 53.2392 40.2226 55.4694 40.3626C55.0509 41.6797 53.0788 40.9961 52.9738 42.6688Z" fill="black"/>
</svg>
