<svg width="202" height="199" viewBox="0 0 202 199" fill="none" xmlns="http://www.w3.org/2000/svg">
<path d="M48.0788 188.471L39.5943 174.84C31.7406 159.692 23.2505 144.707 15.4043 129.457C12.3928 123.616 8.24386 116.234 5.86881 110.231C4.90259 107.766 6.40703 105.689 7.49718 103.582C16.0471 87.6482 28.2241 76.2469 45.4333 70.1048C74.8258 59.6419 102.74 66.6675 127.171 41.3718C135.283 32.9029 143.006 21.1781 145.099 9.56488C149.306 11.8488 152.986 15.6562 156.06 19.2112C164.711 29.1062 173.073 40.1254 181.273 50.5082C186.141 56.5884 194.092 64.6625 197.132 71.5469C198.394 74.2415 195.271 81.4069 194.135 84.1356C186.412 101.587 171.454 118.304 154.737 127.71C121.516 146.432 85.6128 139.034 58.9525 172.081C54.8327 177.196 51.4001 182.881 47.8791 188.352L48.0788 188.471ZM47.8637 182.833C53.4672 174.494 59.1818 166.059 66.8549 159.328C92.548 136.727 130.609 140.221 158.828 121.552C173.156 112.077 188.411 94.1316 193.566 77.639C194.257 75.2945 195.095 73.7936 194.01 71.5283C193.102 69.6923 191.004 67.0411 189.675 65.2786C179.356 51.0978 166.821 34.4654 155.05 21.6367C153.802 20.1925 148.888 14.7337 147.572 14.2216C147.062 14.0804 147.062 14.0804 146.721 14.4721C146.128 15.4702 145.503 18.3401 144.88 19.7525C137.311 37.9438 121.925 53.3808 103.502 60.4758C85.0781 67.5709 65.7987 66.3785 47.3316 72.6375C30.6779 78.2994 19.5834 87.6969 10.9826 102.898C10.3895 103.896 8.24687 107.593 8.17915 108.525C8.11143 109.457 8.56153 110.427 8.92314 111.182C11.3867 117.4 15.6318 124.892 18.7319 130.948C26.1279 145.229 34.1002 160.176 42.1553 173.984C43.9125 177.027 45.9955 179.886 47.7527 182.929L47.8637 182.833Z" fill="black"/>
<path d="M47.8655 182.823C46.1083 179.78 44.0254 176.922 42.2682 173.879C34.2131 160.071 26.1373 145.116 18.8449 130.843C15.7448 124.787 11.5072 117.191 9.03615 111.076C8.68206 110.218 8.23181 109.248 8.292 108.419C8.3522 107.591 10.495 103.894 11.0956 102.792C19.6889 87.695 30.7909 78.1939 47.4446 72.532C65.8081 66.2655 85.5092 67.3845 103.615 60.3704C121.72 53.3564 137.528 37.8459 144.993 19.647C145.616 18.2347 146.241 15.3648 146.834 14.3667C147.079 13.8639 147.182 13.8714 147.685 14.1162C149.001 14.6283 153.915 20.087 155.163 21.5312C166.934 34.3599 179.358 51.0884 189.788 65.1732C191.014 66.9282 193.215 69.5869 194.123 71.4229C195.2 73.7917 194.362 75.2926 193.679 77.5336C188.628 94.0337 173.269 111.971 158.941 121.446C130.611 140.212 92.6609 136.622 66.9677 159.223C59.2946 165.954 53.5875 174.285 47.9765 182.727L47.8655 182.823ZM148.936 19.8294C148.426 19.6882 144.323 28.8649 143.737 29.7594C131 51.7399 110.002 64.1662 85.4339 68.4201C64.2399 72.0863 48.1771 72.4811 29.7897 86.2424C21.7474 92.3216 15.9294 100.749 11.1319 109.459L48.1023 176.698C58.4147 159.434 74.4917 147.379 93.4182 140.529C108.496 135.065 124.472 132.998 139.587 127.016C161.246 118.386 179.754 102.968 188.533 81.0121C188.919 79.9989 190.79 74.3043 190.525 73.6603C184.556 65.522 178.136 57.8714 172.057 49.8291C166.923 43.105 162.226 36.1003 156.974 29.5757C154.299 26.2579 151.181 23.3242 148.832 19.8218L148.936 19.8294Z" fill="#6C671E"/>
<path d="M148.935 19.8512C151.284 23.3536 154.402 26.2873 157.076 29.6051C162.329 36.1296 167.018 43.2379 172.16 49.8585C178.246 57.7972 184.659 65.5514 190.627 73.6897C190.893 74.3337 189.029 79.9247 188.635 81.0414C179.856 102.997 161.348 118.415 139.69 127.046C124.567 133.131 108.598 135.094 93.5209 140.558C74.5944 147.409 58.5175 159.464 48.2051 176.727L11.2346 109.488C16.0321 100.778 21.7542 92.2399 29.8925 86.2718C48.2799 72.5105 64.3428 72.1157 85.5368 68.4495C110.105 64.1956 131.103 51.7693 143.84 29.7888C144.426 28.8943 148.528 19.7176 149.039 19.8588L148.935 19.8512ZM34.5178 91.3972L47.6686 82.3573C49.4461 80.8206 50.3517 78.3875 47.1034 78.6721C45.0094 78.8323 39.8047 81.6818 37.8426 82.8928C35.5623 84.1848 33.5701 85.8101 31.4818 87.3243L34.2049 87.1056C35.3441 87.1884 35.6757 88.3577 35.4968 89.3859C35.4291 90.3181 34.5629 90.7757 34.6138 91.5082L34.5178 91.3972ZM32.9678 88.3693C29.7044 88.8611 27.7273 90.2791 25.3867 92.3997C23.7128 93.9439 19.1127 98.5033 21.0261 100.829C22.9395 103.154 29.14 96.6289 30.4957 95.1656C31.9701 93.5027 34.5704 90.6722 32.9678 88.3693ZM19.8885 99.2885C17.563 101.202 16.3901 104.448 14.3453 106.799L14.8331 107.251L16.2772 106.002C17.5333 107.343 17.0288 108.555 16.8123 110.101L22.399 103.427C22.399 103.427 21.5479 103.678 20.7343 103.411C19.8172 103.136 18.8569 102.025 19.0357 100.997C19.0883 100.272 20.0506 99.925 19.785 99.281L19.8885 99.2885ZM83.4007 133.68C70.4955 129.307 61.1356 117.694 58.3476 104.477C57.2738 99.1933 57.4937 94.7323 58.6025 89.5029C59.2425 86.4258 60.1933 83.3713 61.2476 80.3244C60.7824 79.5618 51.4556 83.2571 50.1676 83.7882C40.9068 88.009 28.1684 98.5365 21.9586 106.623C21.3805 107.414 17.3117 113.261 17.1705 113.772C16.7695 114.992 18.7546 119.197 19.3893 120.492C22.8209 127.717 27.2146 134.596 31.2902 141.556C31.6593 142.207 31.8063 143.051 32.2714 143.813C35.7933 149.796 39.6484 155.49 43.1778 161.369C44.7221 163.043 47.1154 160.197 48.9102 162.722C50.0402 164.366 48.8539 166.362 50.095 167.91L62.9028 154.993L64.4033 150.104C70.676 151.185 77.8105 143.27 72.6975 137.692L83.6077 133.695L83.4007 133.68ZM115.495 116.125C115.834 117.191 116.158 118.464 117.148 119.161C117.356 119.176 120.521 120.031 120.728 120.046C122.201 119.84 123.02 115.735 123.325 114.404C126.246 97.1241 110.185 77.4244 93.9508 73.0173C71.2891 66.7898 56.6075 81.1325 60.6862 103.814C61.7883 110.141 64.8901 114.74 69.0126 119.62L66.681 114.453C65.5227 111.766 66.029 109.096 65.8029 106.476C64.9398 98.2926 61.9694 89.0186 67.8818 82.1599C76.5132 72.2711 86.6875 71.2403 97.689 77.4536C103.892 80.9237 103.734 83.0987 106.879 88.5331C109.375 92.8791 115.86 95.3285 118.904 99.2978C122.42 103.926 122.91 108.647 120.957 114.024C120.816 114.534 119.585 117.151 119.459 117.455C118.762 118.445 118.344 115.604 118.367 115.293L118.209 117.468L116.982 115.713L115.598 116.133L115.495 116.125ZM145.012 33.7262C147.242 37.4282 150.853 30.7147 149.687 28.1312C147.694 24.0299 144.998 32.4759 143.946 34.0653C143.605 34.457 140.093 38.3666 140.715 38.4117L142.136 37.4739C142.713 38.1404 142.867 38.8805 142.703 39.7015C142.651 40.4265 141.992 40.8992 142.161 41.4321L146.147 36.7241C146.268 35.067 144.658 38.5941 144.031 37.195C143.492 36.0106 143.628 34.1463 145.027 33.5191L145.012 33.7262ZM124.058 120.079C126.432 120.356 129.223 119.205 131.569 118.439C149.703 112.468 167.104 100.821 177.156 84.2681C179.395 80.6825 183.43 72.438 182.688 68.3234C182.092 65.0525 175.9 58.5638 173.522 55.4757C168.395 48.648 163.713 41.4361 158.357 34.9041C156.917 33.2376 155.595 31.3715 153.694 30.2964C153.384 30.2739 153.177 30.2588 152.962 30.3474C152.096 30.805 150.034 34.8199 149.219 36.0101C138.85 51.1868 122.552 61.9764 105.69 69.0807C102.899 70.2315 100.02 71.1676 97.1482 72.0002C113.707 77.6802 128.084 94.7589 126.449 112.965C126.283 115.243 125.739 118.431 124.161 120.087L124.058 120.079ZM88.65 75.7557C81.6899 74.1048 74.975 77.6776 71.601 83.9919C70.9853 85.3007 70.3812 89.3174 71.3417 90.4283C71.1832 86.8768 72.2301 83.9334 74.8078 81.4136C72.7669 86.5753 72.2062 91.4281 73.0578 96.9041C73.619 97.7778 73.472 96.9343 73.5021 96.52C73.8973 93.9458 73.7597 91.541 74.5692 88.9969C74.5918 88.6862 74.652 87.8577 75.2584 88.1099C75.4053 88.9536 74.9083 90.0627 75.0627 90.8027C76.5132 96.6346 78.8072 102.32 81.427 107.82C81.8771 108.79 82.6456 109.678 83.0957 110.648C81.8002 111.283 81.1521 108.737 80.478 109.417C79.9075 110.104 79.6611 112.064 80.0227 112.82C80.5613 114.004 82.0489 113.591 82.87 113.755C83.2843 113.785 84.1487 114.785 84.578 114.608C85.4442 114.151 84.4687 113.247 84.9131 112.863C88.0375 117.15 92.2861 121.728 97.8714 122.237L94.6417 119.4L98.9164 120.752L97.5416 119.611L99.9237 119.784C99.193 118.377 96.4927 118.285 94.9918 117.447C91.4947 115.423 88.5624 111.358 85.9841 108.151C87.2345 108.138 87.9577 109.648 88.8447 110.337C92.2816 113.19 95.5358 114.259 99.4546 116.21L99.5299 115.174L103.59 116.614L102.733 115.511C103.622 114.742 104.206 115.305 105.115 115.684C104.599 114.189 107.158 114.791 107.175 113.126L108.173 113.719L108.721 113.343L108.819 111.996L109.921 112.597L110.357 112.316C110.018 111.25 111.158 111.333 111.336 110.305L102.341 109.443C102.868 107.92 104.393 106.99 105.873 106.681C106.171 105.453 101.908 106.809 101.375 106.978C100.508 107.436 97.8138 108.698 97.1473 109.274C96.4882 109.747 96.3019 110.879 95.4659 110.922L94.8988 108.694L96.008 109.192C96.4842 106.936 97.0305 108.016 98.326 107.382C99.9473 106.562 104.389 104.178 103.807 102.157C103.557 101.306 102.29 102.984 101.691 102.628C100.361 100.866 95.29 103.309 95.0152 104.226C95.0001 104.433 96.196 106.602 94.8496 106.504C94.5331 105.128 94.1357 103.433 94.2335 102.087C94.2937 101.258 94.5703 98.8835 95.4064 98.8402L95.6252 101.563L96.7494 101.853C97.5005 98.6799 100.664 100.992 101.933 97.8567C99.5489 93.4147 89.3909 87.0543 99.5595 84.6695C96.5387 80.3895 93.968 77.0791 88.65 75.7557ZM137.811 41.1161C136.922 41.8845 132.351 47.4871 133.223 48.3834C135.381 50.206 140.13 45.0327 141.101 43.1251C142.436 40.515 140.589 38.7149 137.811 41.1161ZM130.995 48.9503L128.048 50.8186C128.854 51.1895 129.632 50.5172 129.845 51.8862C130.08 52.9445 128.527 52.8316 128.888 53.5867C130.464 53.3888 131.073 52.1836 132.376 51.4453L130.63 51.1103L130.78 49.0388L130.995 48.9503ZM69.1393 100.68C69.1393 100.68 68.3633 99.8949 67.8078 100.375C67.5781 100.671 68.1115 106.228 68.8139 106.591L69.3712 104.653L69.8045 107.288C70.8345 106.009 72.3407 102.474 71.9357 100.883C71.9508 100.676 71.7661 100.35 71.5439 100.542L70.8322 101.74C69.947 99.5935 69.7607 100.725 69.1393 100.68ZM73.1281 105.968C73.3954 105.154 74.8432 100.99 73.83 100.604C72.8811 102.201 72.4274 104.147 73.1281 105.968ZM102.558 89.2603C101.096 86.447 96.4338 87.5659 98.1834 90.7125C99.0965 88.1759 100.656 89.6427 102.558 89.2603ZM102.289 91.5313C100.905 91.9514 99.8764 91.7725 98.5525 91.364C99.1797 92.7631 101.347 93.0247 102.451 92.1678L102.185 91.5238L102.289 91.5313ZM71.0288 110.5C69.0724 113.065 72.3681 116.428 73.8898 118.413L71.0288 110.5ZM73.6123 109.334C72.1531 110.79 73.8424 114.765 74.6768 116.179C75.5111 117.594 77.5374 118.366 78.705 119.492C79.2454 119.218 78.558 118.648 78.3734 118.322C77.428 117.004 76.0306 116.174 75.2114 114.552C74.2961 112.82 75.164 110.905 73.5087 109.327L73.6123 109.334ZM110.319 107.108C110.794 106.309 110.973 105.281 110.833 104.334C110.635 102.758 108.232 95.7114 107.383 94.5044C105.965 92.5272 103.255 93.9962 101.191 93.7421C104.967 97.6605 108.069 102.259 110.319 107.108ZM113.275 122.315L109.025 124.922C107.715 125.764 103.794 125.271 102.263 124.847C101.649 124.698 100.977 123.921 100.459 123.883C100.045 123.853 99.8958 124.467 99.3779 124.429C98.2462 124.243 94.3783 123.025 93.2766 122.424C92.0714 121.816 91.1994 120.92 89.9867 120.415C90.2447 121.163 91.6345 122.097 91.0489 122.991L86.5764 120.063C89.5879 125.905 103.941 131.841 109.76 129.14C110.3 128.867 111.714 128.033 111.56 127.293C108.037 128.494 102.909 128.851 99.7529 126.435C103.666 127.031 108.423 127.481 111.652 124.592C112.208 124.112 113.238 122.833 113.187 122.101L113.275 122.315ZM187.999 75.477C186.918 76.0231 186.142 75.2379 185.343 74.7634C184.46 76.8858 186.005 78.5597 186.372 80.6687C187.039 80.0924 186.197 78.7819 186.227 78.3676C186.242 78.1604 188.597 75.8328 187.991 75.5805L187.999 75.477ZM184.199 79.0532L182.116 81.9213L184.096 84.7722C185.169 84.3296 184.163 83.84 183.905 83.0925C183.559 82.1302 184.44 81.4655 184.728 81.7987C185.894 84.3823 185.95 80.7422 185.67 80.3054C185.477 80.0832 184.25 79.7857 184.206 78.9496L184.199 79.0532ZM181.041 83.8215L179.633 86.0098L180.938 89.5404C181.827 88.7721 181.139 88.2015 181.414 87.2844C186.129 85.4405 181.512 85.9381 181.041 83.8215ZM178.827 91.3653L177.217 89.166C176.586 90.682 177.961 91.823 178.699 93.126C179.093 92.0093 181.462 90.932 180.198 89.6949L178.827 91.3653ZM121.017 126.105C120.727 127.23 122.049 129.096 123.441 128.572C127.726 126.905 121.657 123.028 121.017 126.105ZM175.327 92.2563C174.786 92.5294 174.526 93.2394 174.696 93.7723C174.769 94.1941 175.751 96.4519 176.291 96.1788L178.24 93.7174L177.782 92.8512L176.411 94.5216L175.43 92.2638L175.327 92.2563ZM127.832 125.455C127.086 124.256 125.578 123.522 124.371 124.371C125.983 125.113 126.099 126.371 126.838 127.674C128.118 127.246 126.506 126.504 126.662 125.787L129.939 126.545L128.235 122.777L126.628 123.39C126.628 123.39 129.557 124.643 127.935 125.463L127.832 125.455ZM132.334 122.242C131.492 120.932 130.328 122.617 129.293 122.542L131.434 126.029L133.907 124.96C133.479 123.679 132.508 125.587 131.509 124.994L132.658 123.515L130.867 123.802L132.334 122.242ZM171.918 96.1734C169.252 98.4786 172.207 102.233 174.269 98.2183C175.248 96.2071 174.14 94.2525 171.918 96.1734ZM136.441 121.604C136.441 121.604 135.629 119.879 134.629 120.743L136.771 124.231L137.645 123.669L136.899 122.47L137.876 121.916L138.601 121.969L139.036 123.146L140.531 122.63L138.064 119.327L137.19 119.888L137.403 121.257L136.234 121.589L136.441 121.604ZM170.669 101.913C170.936 101.1 170.635 99.516 169.495 99.4332C168.149 99.3354 167.2 100.932 166.111 101.582L168.068 104.744C168.661 103.746 170.283 102.926 170.573 101.802L170.669 101.913ZM142.286 121.404C142.051 120.345 141.497 119.368 140.499 118.775C139.804 118.308 139.789 118.515 139.633 119.233C140.853 119.634 140.414 121.372 141.516 121.972C142.418 122.454 143.958 121.317 144.617 120.844L142.15 117.541C140.531 116.903 143.382 120.65 143.367 120.857L142.168 121.603L142.286 121.404ZM164.503 103.652C163.889 103.503 161.364 105.298 161.319 105.919L163.299 108.77C165.304 108.395 166.752 104.232 164.503 103.652ZM160.231 106.569L157.772 108.889L159.655 111.629L162.18 109.834C161.856 108.561 160.47 110.439 160.064 110.305L159.502 109.431L160.325 108.138L158.903 109.076L160.223 106.673L160.231 106.569ZM144.926 116.598C144.926 116.598 144.163 117.063 143.734 117.24L146.009 120.321C147.512 119.701 144.745 119.083 145.76 118.012C146.617 119.115 148.156 119.435 149.363 118.586L147.413 115.321L146.54 115.882L147.381 117.193C147.92 118.377 145.029 116.605 144.926 116.598ZM150.673 117.744C156.499 114.94 153.064 110.63 148.398 114.663L150.673 117.744ZM158.337 112.574L156.668 109.746L153.307 111.584L155.175 114.531C156.782 113.919 155.2 112.763 156.311 111.802L157.375 112.921L158.337 112.574Z" fill="black"/>
<path d="M124.057 120.071C125.635 118.415 126.075 115.22 126.344 112.949C127.979 94.7428 113.602 77.6642 97.0438 71.9842C99.9155 71.1516 102.795 70.2155 105.585 69.0647C122.448 61.9604 138.745 51.1708 149.114 35.9941C149.922 34.9075 151.991 30.789 152.858 30.3314C153.072 30.2428 153.39 30.1618 153.59 30.2804C155.49 31.3555 156.916 33.2292 158.253 34.8881C163.609 41.4201 168.395 48.6395 173.417 55.4597C175.692 58.5403 181.988 65.0365 182.583 68.3074C183.318 72.5255 179.291 80.6665 177.052 84.2521C166.999 100.805 149.702 112.459 131.465 118.423C129.222 119.197 126.328 120.34 123.953 120.063L124.057 120.071ZM151.565 40.9615C150.472 38.7998 149.137 41.4099 149.143 42.7639C149.401 43.5115 150.096 43.9784 150.836 43.8239C151.576 43.6694 152.073 42.5603 152.508 43.7372C151.915 44.7353 150.258 44.6149 150.996 45.9179L150.183 45.6506L149.84 47.4998L148.547 46.677C148.547 46.677 149.865 45.7316 149.185 45.0575L148.177 46.0255L147.432 44.826C148.305 44.2648 149.068 43.7996 148.107 42.6886L146.048 45.2461C147.215 46.3721 148.368 47.7052 148.558 49.3849C150.053 48.8688 150.166 47.3153 151.07 46.3398C151.418 45.8445 152.166 45.5864 152.61 45.2022C153.736 44.0346 153.695 41.741 151.697 42.0123C150.853 42.1592 150.149 43.2534 149.81 42.1876L151.557 41.0651L151.565 40.9615ZM145.692 45.8449L142.98 48.7715C143.865 50.9181 144.491 48.0482 144.587 48.1593L146.506 51.8387L147.78 50.0572L145.594 47.1913L146.652 46.9558L145.581 45.941L145.692 45.8449ZM142.809 49.6961L140.928 51.2253C142.429 52.0632 141.76 54.097 142.706 55.4151C143.357 55.0459 144.327 54.5957 144.077 53.7446L143.144 53.6769L144.574 52.6354L145.135 53.5091L146.365 52.3491L142.698 49.7921L142.809 49.6961ZM140.276 51.5944L137.269 54.2913L137.942 55.0689L136.832 54.5719C136.573 55.2818 135.744 55.2216 135.3 55.6058C134.062 56.8695 134.46 58.5642 136.354 58.2854C137.094 58.1309 137.791 57.1404 138.145 57.999C138.047 59.3454 136.716 59.0405 135.946 59.6092L136.507 60.483C137.803 59.8483 139.816 59.3697 139.33 57.4603C138.859 55.3437 135.23 57.9954 135.654 56.4644C135.929 55.5473 136.897 56.5547 137.23 56.2666C138.119 55.4982 138.171 54.7732 138.143 53.73C139.096 54.9445 140.589 55.886 140.358 57.6391L142.239 56.11L139.638 53.2139C140.8 52.986 141.037 52.5867 140.276 51.5944ZM111.103 70.5068L109.681 71.4446C109.947 72.0886 110.583 71.9267 111.071 72.3786C112.135 73.497 112.133 74.9546 114.361 74.3876C117.536 73.6812 114.434 69.0829 112.302 69.7609L114.673 72.9526C112.954 75.1183 111.51 70.6404 111.103 70.5068ZM117.358 67.5253L118.082 69.0355C116.277 68.0715 115.79 67.6196 113.909 69.1488C115.033 69.4387 116.119 70.2465 116.769 71.3349C117.146 71.8828 116.59 72.3631 117.071 72.9186L118.818 71.7961C118.818 71.7961 116.297 70.6758 117.097 69.6928C118.272 70.7152 120.061 71.8863 121.394 70.7338C120.552 69.4232 119.155 68.5929 119.068 66.9207L117.462 67.5328L117.358 67.5253ZM121.77 65.5552C121.77 65.5552 121.593 65.126 121.394 65.0073L119.098 66.5064C120.592 67.4478 121.855 68.685 121.609 70.6453L123.904 69.1462L121.17 66.6569C121.17 66.6569 121.637 65.962 121.763 65.6588C122.058 65.8885 122.132 66.3104 122.761 66.252L123.473 65.0542C124.322 66.2612 125.535 66.7658 125.207 68.4079L127.687 67.2345C127.548 66.2873 126.859 67.1744 126.57 66.8411C125.987 66.2781 125.655 65.1087 125.079 64.4421L126.685 63.83L125.828 62.7266L122.474 64.4611C122.474 64.4611 122 65.2596 121.763 65.6588L121.77 65.5552ZM132.84 57.926L129.679 59.8827C129.944 60.5267 130.581 60.3648 131.069 60.8167C131.556 61.2686 132.641 63.5339 132.848 63.5489L134.27 62.611L133.11 61.3815C133.792 60.598 134.73 62.0197 135.247 62.0573L136.477 60.8972C136.234 59.9425 135.441 60.822 134.953 60.3701C134.266 59.7996 133.957 58.3195 132.944 57.9335L132.84 57.926ZM129.589 61.1256C128.494 60.4214 127.346 61.8998 126.273 62.3424L129.02 66.0819C130.063 66.0536 131.634 64.5019 131.916 63.4812L129.755 64.5735C128.579 63.5511 129.845 63.3307 129.284 62.457L128.314 62.9071L129.589 61.1256ZM153.304 52.8532C153.304 52.8532 155.089 51.2129 154.904 50.8871C153.247 50.7667 152.185 48.1907 150.697 48.6032C148.788 49.0892 150.362 50.3489 150.701 51.4147C151.387 53.4428 151.748 54.1978 149.587 55.2902L148.391 53.121L149.701 52.2791L149.14 51.4054C144.988 52.6656 149.035 58.5819 151.236 55.5142C151.473 55.1149 151.296 54.6856 151.296 54.6856C151.415 54.486 152.658 54.5763 153.036 53.6667C153.652 52.3579 151.379 53.5463 152.225 51.9419C153.313 51.2921 153.304 52.8532 153.407 52.8608L153.304 52.8532ZM146.385 53.4958L144.504 55.0251L146.971 58.3279C144.964 60.1603 144.776 57.0231 143.823 55.8085L141.038 58.3132C142.087 59.6388 143.913 60.2922 143.141 62.3184L142.439 61.9551L141.32 63.0191L140.665 60.5767L139.983 61.3602L139.637 60.398L141.273 59.3716L140.712 58.4978L137.957 60.5883L140.424 63.891L139.55 64.4523L137.275 61.3717L135.528 62.4942L136.214 64.5222C135.031 63.6034 134.425 63.3511 133.099 64.4001L135.61 68.5389L137.031 67.601L134.992 65.5787C135.888 64.7068 136.654 67.0531 137.609 66.8101C138.675 66.471 137.345 64.7086 137.065 64.2717C138.345 63.8442 138.49 66.1453 138.594 66.1528L145.015 60.8928L144.181 59.4787C144.181 59.4787 144.987 59.8496 145.393 59.9832C146.325 60.051 149.073 58.064 148.105 57.0567C146.834 55.9231 145.421 55.3 146.4 53.2887L146.385 53.4958ZM120.786 71.939C119.223 73.3873 120.988 76.3266 122.852 76.4621C127.631 76.6011 124.03 68.843 120.786 71.939ZM131.225 65.8257L129.263 67.0367C129.875 68.6429 130.71 70.057 130.582 71.8178L132.514 71.0211L131.354 69.7915C133.775 67.9892 132.286 69.8592 133.928 70.1867L135.046 69.1227L131.329 65.8332L131.225 65.8257ZM126.546 68.6093L123.599 70.4775C125.285 71.6411 126.038 72.7371 126.628 74.654L128.375 73.5316L126.846 71.6505L127.904 71.415L127.158 70.2155L126.055 71.0724L126.16 69.6224L127.196 69.6976L126.45 68.4982L126.546 68.6093ZM146.994 63.7437C142.965 67.6156 149.671 77.057 152.908 79.791C154.084 80.8134 155.274 81.6287 156.776 81.0091C162.565 78.7225 156.067 67.8387 153.888 64.8692C151.709 61.8997 150.016 60.8397 146.994 63.7437ZM138.174 70.4952C136.397 72.032 137.156 74.4818 137.745 76.3988C138.563 79.4776 143.441 89.7232 147.512 88.1449C152.442 86.2124 151.227 81.4388 149.219 77.5447C148.4 75.9234 144.871 70.0446 143.673 69.3329C142.172 68.4951 139.5 69.4462 138.278 70.5028L138.174 70.4952ZM144.179 91.0262C140.294 85.7463 137.313 79.4909 134.516 73.5612L130.198 77.0999C130.966 77.9887 132.328 77.8793 133.2 78.7756C135.136 80.7904 136.138 84.1949 137.415 86.6824C138.596 89.0588 140.458 90.6517 140.137 93.6478L144.275 91.1373L144.179 91.0262ZM167.046 74.3628C164.359 75.5211 165.777 77.4982 167.44 78.9726C168.862 78.0347 169.566 76.9405 168.103 75.5848C167.911 75.3626 167.126 76.1385 166.943 74.3552L167.046 74.3628ZM176.827 68.7221C174.398 70.628 172.163 77.0251 175.564 78.9381C178.965 80.851 181.548 73.9587 180.405 71.0645C179.874 69.7765 178.375 67.481 176.827 68.7221ZM165.751 80.724L163.328 78.2573L162.77 80.1951C163.763 79.4342 164.13 81.5432 165.136 82.0328L165.855 80.7315L165.751 80.724ZM161.46 81.0369L159.904 82.3815C161.339 82.694 161.916 83.3607 162.646 84.7673L163.136 83.7616L161.46 81.0369ZM159.031 82.9428L156.46 85.359C157.08 86.8617 158.104 84.229 158.208 84.2366L159.253 88.4772C159.253 88.4772 160.001 88.2192 160.039 87.7013C160.061 87.3906 159.238 82.9579 159.031 82.9428ZM156.255 89.6129C156.255 89.6129 156.312 85.9729 154.135 87.2724C153.809 87.457 152.802 88.425 152.787 88.6321C152.828 90.9257 153.994 87.7828 154.719 87.8355L155.113 92.4452C155.113 92.4452 158.105 89.9556 157.122 89.1553L156.248 89.7165L156.255 89.6129ZM139.977 97.2803L137.785 98.787C138.043 99.5345 138.934 103.035 139.896 102.689C140.985 102.039 139.521 100.683 139.536 100.476L141.284 99.3535L139.627 99.2331L140.538 98.154L139.977 97.2803ZM154.009 93.3021C152.702 91.2289 152.276 88.491 150.171 91.6698C150.414 92.6245 151.103 91.7375 151.695 92.1969C152.286 92.6563 152.625 93.7222 153.098 94.3812L154.009 93.3021ZM170.292 88.4462C174.947 87.4309 177.583 79.8135 172.451 77.3584C169.513 77.6655 168.126 81.0007 167.731 83.5749C167.484 85.5352 168.806 87.4012 170.292 88.4462ZM150.603 95.7617C151.011 94.4379 150.119 92.3948 148.669 92.2895C145.072 93.0693 149.266 99.8293 150.603 95.7617ZM144.063 95.4948L141.767 96.994C142.617 98.201 143.007 99.9993 144.671 100.016L143.948 98.5059L145.148 97.7601L143.579 97.8544L143.018 96.9807L144.195 96.5456L144.27 95.5099L144.063 95.4948ZM168.027 89.5311L165.688 84.4676C164.865 85.7614 162.116 89.2058 162.639 90.5973C162.986 91.5596 163.49 90.3468 164.008 90.3845C164.526 90.4221 165.376 91.6291 165.434 92.258C165.485 92.9905 164.574 94.0696 165.246 94.8473L169.78 89.7626L169.448 88.5932L168.027 89.5311ZM134.955 107.64C134.104 107.89 134.607 108.135 134.569 108.653C134.441 110.413 134.306 112.278 134.178 114.038L135.509 114.343L136.6 112.236C138.498 114.769 139.983 110.087 142.1 109.616L144.275 109.774C145.022 109.516 145.305 108.496 145.964 108.023C146.726 107.558 149.591 106.829 150.56 106.379C151.745 105.84 152.153 104.516 152.805 104.147C153.345 103.874 154.692 103.972 155.662 103.522C157.068 102.791 157.787 101.49 159.586 101.1C159.158 99.8191 157.057 100.083 156.087 100.533C155.006 101.079 154.716 102.204 153.85 102.661C153.095 103.023 152.193 102.541 151.859 102.829C151.319 103.102 150.888 104.737 149.704 105.275C149.06 105.541 146.907 105.072 145.826 105.618C144.849 106.172 144.322 107.695 144.143 108.724L143.706 109.004C142.99 107.39 140.806 108.793 139.814 109.554C138.718 110.308 138.835 111.566 137.731 112.422L137.119 110.816L135.652 112.376C135.47 110.592 136.833 109.025 134.837 107.839L134.955 107.64Z" fill="#B2A221"/>
<path d="M83.3992 133.681L72.4887 137.678C77.5943 143.359 70.4597 151.274 64.1946 150.09L62.6941 154.978L49.8863 167.896C48.6452 166.348 49.9275 164.463 48.7015 162.708C47.0102 160.19 44.5135 163.028 42.9692 161.354C39.4399 155.475 35.4812 149.774 32.0629 143.799C31.6937 143.147 31.5468 142.304 31.0816 141.541C27.1096 134.589 22.7157 127.711 19.1806 120.478C18.5459 119.182 16.6644 114.985 16.9618 113.757C17.103 113.247 21.0684 107.392 21.75 106.609C28.0634 98.5295 40.6981 87.9945 49.9589 83.7738C51.1433 83.2351 60.4776 79.4362 61.0388 80.3099C60.0881 83.3644 59.0413 86.3078 58.3938 89.4884C57.285 94.7178 57.0651 99.1789 58.1388 104.463C60.9268 117.68 70.2868 129.292 83.192 133.666L83.3992 133.681ZM50.3532 94.1101C49.888 93.3475 50.2665 92.4379 49.9049 91.6828C48.5996 88.1521 45.1407 91.3367 46.5079 92.5813L47.3365 92.6415L46.8864 91.6717L47.8711 91.0144C49.1197 92.4587 47.2104 92.9447 48.9768 94.4265L47.9919 95.0838L48.5533 95.9575L51.1367 94.7917L50.9313 93.3192L50.2497 94.1026L50.3532 94.1101ZM50.3378 88.5907C49.2419 89.344 52.666 96.6728 54.6542 92.2361C55.396 90.6241 53.5976 91.0141 53.1099 90.5622C52.5261 89.9992 52.8009 89.0821 52.106 88.6151C51.8028 88.489 50.5599 88.3987 50.4488 88.4947L50.3378 88.5907ZM42.5916 100.626L44.0359 99.3776C42.4616 98.1179 43.352 95.8921 42.7173 94.5965C42.2672 93.6268 41.659 94.832 41.0075 95.2012C40.1338 95.7624 38.6989 95.4499 40.1697 96.7021L41.7759 96.0899L42.5916 100.626ZM45.6283 91.7886L42.6891 93.5533L44.0337 95.1087L44.8056 93.0823C45.4195 93.2311 44.7476 98.1799 46.3387 97.7749L47.3161 97.2213L45.6283 91.7886ZM39.1119 102.664C39.1119 102.664 40.5994 102.251 40.8216 102.059C41.8666 100.574 40.0476 99.8167 39.6935 98.958C39.5089 98.6322 39.8648 98.0334 39.4881 97.4854C38.9194 96.7153 37.5579 96.8246 37.1794 97.7342C36.8085 98.5402 38.594 102.626 39.1119 102.664ZM37.1215 102.832C37.1215 102.832 36.6917 97.2823 33.7355 100.712L34.2516 102.207L34.7786 100.683C36.7615 100.619 35.0991 104.871 36.1198 105.154L38.2382 103.225L37.7221 101.73L37.225 102.839L37.1215 102.832ZM31.4401 102.211C30.8036 102.373 30.6756 104.133 30.7566 104.452C30.7416 104.659 31.2971 104.179 31.5852 104.512C32.2651 105.186 32.9357 107.421 33.8678 107.489L34.2312 106.786L31.4401 102.211ZM27.9886 105.292C26.8551 106.563 28.714 111.071 30.55 110.163C33.6815 108.621 29.8037 103.237 27.9886 105.292ZM25.4391 108.855L22.9725 111.279L26.0082 115.351C26.1211 113.798 24.6429 112.649 26.6935 111.653L25.9477 110.454L24.6221 111.503L25.3356 108.847L25.4391 108.855ZM19.6471 114.056L22.3498 118.417C24.1556 117.924 22.3666 116.753 22.5228 116.035C22.583 115.207 23.6413 114.971 23.3022 113.905C22.8671 112.729 21.6659 114.932 21.4663 114.813L20.9049 113.939L22.6976 112.196C22.4187 110.301 20.1065 113.465 19.6621 113.849L19.6471 114.056ZM29.4226 118.515C28.7503 117.737 27.0065 115.945 26.4643 117.675L30.8917 121.224C31.9876 120.471 30.4109 114.943 29.9967 114.912C28.1758 115.613 29.8236 117.295 29.4226 118.515ZM26.0047 118.267L23.8713 120.402L26.7887 124.675C28.233 123.426 25.6078 122.298 27.0822 120.635C23.7152 121.12 26.6169 119.873 26.0047 118.267ZM41.282 112.921C36.439 116.526 34.8069 126.09 38.404 131.037C43.5228 137.968 51.0153 133.723 53.783 127.156C56.9441 119.473 50.3015 106.288 41.282 112.921ZM60.3948 129.303C57.1881 131.881 53.8929 134.244 50.8858 136.941C49.2193 138.382 45.5306 141.862 44.3745 143.444C43.915 144.035 43.9358 145.182 44.3049 145.834C47.5643 142.53 50.8313 139.124 54.3864 136.05C56.275 134.417 59.3028 132.867 60.4005 130.657C60.6453 130.154 60.9786 129.866 60.4983 129.31L60.3948 129.303ZM64.1818 130.202C58.962 133.259 54.1699 137.596 49.807 141.756C48.3553 143.108 43.5557 147.549 43.0361 148.969C42.7913 149.472 42.6576 149.879 43.0417 150.323C48.5306 144.995 53.9309 139.453 59.8039 134.57C60.5816 133.897 61.6549 133.455 62.5437 132.686C62.7658 132.494 65.321 130.285 64.1818 130.202ZM59.1151 141.183C60.5988 137.959 63.0093 139.175 64.5514 136.58C62.6871 136.445 59.2976 137.24 57.9569 138.496C57.505 138.984 57.4449 139.812 56.8894 140.293C55.882 141.261 54.4244 141.259 53.5356 142.027C52.869 142.603 52.9124 143.44 52.2458 144.016C50.7941 145.368 48.8997 145.647 48.2012 148.095L46.1298 147.944C45.3955 149.453 43.3149 150.863 44.8516 152.641C45.1623 152.664 46.3711 150.357 47.1262 149.995C48.0959 149.545 48.501 151.136 50.1674 149.695C51.2709 148.839 50.7096 147.965 51.3027 146.967C52.8921 148.019 52.3383 147.042 53.197 146.688C53.7374 146.415 54.5434 146.786 54.9878 146.402C55.4397 145.914 53.7126 142.457 56.4055 142.652L57.4469 144.081C58.6389 143.439 58.6331 142.085 59.1151 141.183ZM63.8228 139.443C61.0379 141.948 60.8631 145.787 63.575 148.587C66.2869 151.387 72.6551 146.852 73.0145 143.338C73.4208 137.745 67.7187 135.978 63.8228 139.443ZM55.3654 158.403C59.1825 158.888 62.8655 154.054 63.1213 150.532C63.3546 147.322 59.6522 143.825 56.4756 145.989C56.1423 146.277 52.6889 150.816 52.5552 151.222C51.6647 153.448 53.8436 156.418 54.9586 158.269C52.761 158.422 52.0547 155.247 51.4501 153.537L50.7477 153.174L45.7824 159.893C46.4773 160.36 47.4697 159.599 48.3867 159.874C50.7237 160.668 49.677 163.612 50.4812 165.44L56.5405 159.425L55.373 158.299L55.3654 158.403Z" fill="#B2A221"/>
<path d="M88.652 75.7271C93.9775 76.9469 96.5482 80.2573 99.5615 84.6409C89.3929 87.0257 99.4473 93.3785 101.935 97.8281C100.666 100.964 97.5025 98.6513 96.7514 101.824L95.6271 101.534L95.4084 98.8115C94.5798 98.7513 94.2957 101.23 94.2355 102.058C94.1377 103.405 94.5351 105.099 94.8516 106.476C96.198 106.574 95.0096 104.301 95.0171 104.197C95.292 103.28 100.363 100.837 101.693 102.6C102.188 102.948 103.559 101.278 103.809 102.129C104.391 104.149 99.9418 106.637 98.328 107.353C97.0325 107.988 96.4862 106.907 96.01 109.163L94.9008 108.666L95.4678 110.893C96.2964 110.954 96.4902 109.718 97.1492 109.246C97.9119 108.78 100.51 107.407 101.377 106.95C101.813 106.669 106.069 105.417 105.875 106.652C104.388 107.064 102.87 107.891 102.343 109.415L111.338 110.276C111.263 111.312 110.02 111.222 110.359 112.288L109.923 112.568L108.924 111.975L108.827 113.322L108.175 113.691L107.177 113.098C107.168 114.659 104.601 114.16 105.117 115.655C104.208 115.277 103.727 114.721 102.735 115.482L103.592 116.585L99.4282 115.138L99.353 116.173C95.5376 114.23 92.1724 113.257 88.8467 110.308C87.9672 109.516 87.2365 108.109 85.9861 108.122C88.4683 111.218 91.4967 115.394 94.9938 117.418C96.4947 118.256 99.195 118.348 99.9257 119.755L97.5436 119.582L98.9184 120.723L94.6436 119.371L97.8734 122.209C92.2806 121.803 88.0395 117.121 84.9151 112.834C84.4707 113.218 85.5498 114.129 84.58 114.58C84.2542 114.764 83.2787 113.86 82.872 113.727C82.162 113.467 80.6669 113.983 80.0247 112.791C79.6631 112.036 79.9095 110.076 80.48 109.388C81.1541 108.708 81.8022 111.254 83.0977 110.619C82.6476 109.65 81.7755 108.753 81.429 107.791C78.9127 102.298 76.6112 96.717 75.0647 90.7741C74.9102 90.0341 75.3037 88.9174 75.2603 88.0813C74.654 87.829 74.7049 88.5615 74.5712 88.9683C73.7617 91.5124 73.8993 93.9171 73.5041 96.4914C73.474 96.9057 73.5099 97.8453 73.0598 96.8755C72.1046 91.392 72.7689 86.5467 74.8098 81.385C72.232 83.9048 71.1777 86.9518 71.3437 90.3997C70.3832 89.2888 70.9873 85.272 71.603 83.9632C74.8735 77.6414 81.6919 74.0761 88.652 75.7271ZM89.2319 97.8422C91.3843 98.3109 92.8377 95.5012 92.5439 93.8139C92.3969 92.9703 91.8057 92.511 91.6437 91.8745C91.4892 91.1345 91.7413 90.528 91.4833 89.7804C90.2515 86.6715 85.7736 88.1162 84.4613 90.4156C83.7496 91.6133 83.8571 94.4323 84.07 95.8013C84.136 96.3266 84.2906 97.0668 84.9571 96.4905C84.9248 92.6358 87.1843 90.1969 91.1709 91.2154C90.9186 91.8218 89.8979 91.5394 89.2539 91.8049C88.1806 92.2476 87.2844 93.1195 86.5802 94.2136C86.3429 94.6129 85.3338 97.0384 85.8441 97.1796C86.5408 96.189 89.8794 94.6616 90.9076 94.8404C91.1147 94.8554 91.4989 95.2998 90.8549 95.5654C89.8927 95.9119 89.2562 96.074 88.6631 97.0721L89.2319 97.8422Z" fill="#B2A221"/>
<path d="M115.493 116.109L116.877 115.689L118 117.437L118.158 115.262C118.158 115.262 118.657 118.422 119.354 117.431C119.584 117.135 120.711 114.51 120.852 114C122.805 108.624 122.315 103.903 118.799 99.2743C115.755 95.3049 109.27 92.8555 106.774 88.5095C103.637 82.9716 103.787 80.9002 97.5839 77.4301C86.5748 71.3203 76.2971 72.3436 67.7768 82.1363C61.8719 88.8915 64.8346 98.2691 65.6977 106.453C66.0275 109.08 65.5213 111.75 66.576 114.43L68.9076 119.597C64.8887 114.724 61.7869 110.125 60.5812 103.791C56.5025 81.109 71.1764 66.8698 93.8456 72.9938C110.08 77.4009 126.141 97.1006 123.22 114.38C123.018 115.719 122.096 119.817 120.623 120.022C120.416 120.007 117.243 119.256 117.043 119.137C116.053 118.441 115.729 117.168 115.39 116.102L115.493 116.109Z" fill="#6C671E"/>
<path d="M113.274 122.288C113.222 123.013 112.192 124.292 111.74 124.779C108.51 127.668 103.754 127.219 99.8407 126.622C103.005 128.934 108.132 128.578 111.648 127.48C111.802 128.22 110.388 129.054 109.848 129.327C104.029 132.028 89.6681 126.195 86.6641 120.25L91.1368 123.178C91.7224 122.284 90.3324 121.35 90.0744 120.602C91.2872 121.107 92.1591 122.003 93.3644 122.611C94.4735 123.108 98.2305 124.423 99.4658 124.616C99.9837 124.654 100.228 124.151 100.547 124.07C101.064 124.108 101.744 124.782 102.351 125.034C103.882 125.458 107.802 125.951 109.113 125.109L113.363 122.502L113.274 122.288Z" fill="#B2A221"/>
<path d="M34.5155 91.3941C34.5682 90.6691 35.2272 90.1964 35.3985 89.2718C35.4737 88.2361 35.3418 87.1853 34.1065 86.9914L31.3836 87.2101C33.4718 85.6959 35.5601 84.1818 37.7444 82.7787C39.7065 81.5677 44.9112 78.7182 47.0051 78.5579C50.357 78.2809 49.3479 80.7064 47.5704 82.2431L34.4195 91.283L34.5155 91.3941ZM38.7273 83.5789C38.1568 84.2663 39.1908 85.7991 39.9158 85.8517C45.1488 84.0454 43.045 80.0403 38.7273 83.5789Z" fill="#B2A221"/>
<path d="M32.9684 88.3794C34.5787 90.5787 31.9708 93.5128 30.4964 95.1757C29.1407 96.639 22.9402 103.164 21.0268 100.839C19.1134 98.5134 23.7135 93.954 25.3874 92.4098C27.728 90.2892 29.7051 88.8711 32.9684 88.3794ZM27.8071 92.065C26.054 91.8335 23.9038 95.6338 24.2052 97.2174C26.5497 97.9083 28.2178 95.0101 28.679 92.9612C28.7091 92.547 28.1179 92.0876 27.8071 92.065Z" fill="#B2A221"/>
<path d="M110.316 107.118C108.065 102.269 104.963 97.6712 101.187 93.7527C103.251 94.0068 105.953 92.6414 107.379 94.515C108.228 95.722 110.632 102.768 110.83 104.344C110.969 105.292 110.687 106.312 110.316 107.118Z" fill="#B2A221"/>
<path d="M145.011 33.7225C143.612 34.3497 143.477 36.214 144.016 37.3984C144.643 38.7975 146.253 35.2703 146.132 36.9275L142.146 41.6356C141.977 41.1027 142.636 40.6299 142.688 39.9049C142.748 39.0763 142.594 38.3363 142.121 37.6772L140.7 38.6151C140.078 38.57 143.693 34.668 143.931 34.2687C144.983 32.6793 147.679 24.2334 149.672 28.3346C150.949 30.8221 147.234 37.5281 144.996 33.9297L145.011 33.7225ZM147.945 30.6039C147.576 29.9523 147.836 29.2424 146.896 29.2783C146.28 30.5871 145.642 32.2066 146.588 33.5247L148.424 32.6169C148.817 31.5002 150.063 28.6754 148.049 30.6114L147.945 30.6039Z" fill="#B2A221"/>
<path d="M137.813 41.0843C140.59 38.6831 142.437 40.4832 141.103 43.0933C140.139 44.8974 135.493 50.0782 133.224 48.3516C132.352 47.4553 136.916 41.9562 137.813 41.0843ZM138.381 41.8544C137.159 42.911 134.205 44.8828 136.393 46.2912C138.118 45.4795 140.769 43.3815 138.381 41.8544Z" fill="#B2A221"/>
<path d="M19.8906 99.2619C20.1561 99.9059 19.305 100.156 19.1412 100.977C19.066 102.013 19.8194 103.109 20.8401 103.391C21.5575 103.548 22.1279 102.86 22.5046 103.408L16.9181 110.082C17.0309 108.529 17.6391 107.324 16.3829 105.983L14.9386 107.231L14.4509 106.78C16.3846 104.525 17.6612 101.286 19.9942 99.2694L19.8906 99.2619Z" fill="#B2A221"/>
<path d="M69.137 100.664C69.862 100.717 69.9447 99.5774 70.8299 101.724L71.5416 100.526C71.5416 100.526 71.9485 100.66 71.9334 100.867C72.3384 102.458 70.8322 105.993 69.8022 107.272L69.3689 104.637L68.8116 106.575C68.1167 106.108 67.4798 100.544 67.8055 100.359C68.361 99.8788 68.7227 100.634 69.137 100.664Z" fill="#B2A221"/>
<path d="M73.6112 109.304C75.2665 110.882 74.3985 112.797 75.3139 114.529C76.1331 116.15 77.4269 116.973 78.4759 118.299C78.6605 118.625 79.3402 119.299 78.8073 119.468C77.6397 118.342 75.6134 117.57 74.7791 116.156C73.9448 114.742 72.2554 110.767 73.7147 109.311L73.6112 109.304Z" fill="#B2A221"/>
<path d="M171.918 96.1614C174.14 94.2405 175.247 96.195 174.268 98.2063C172.207 102.221 169.355 98.474 171.918 96.1614Z" fill="#B2A221"/>
<path d="M121.013 126.097C121.764 122.924 127.723 126.897 123.437 128.564C122.045 129.088 120.723 127.222 121.013 126.097Z" fill="#B2A221"/>
<path d="M150.674 117.743L148.399 114.662C153.072 110.525 156.5 114.939 150.674 117.743ZM151.781 113.971L149.856 114.664L151.355 116.96L152.734 115.186C152.734 115.186 152.195 114.001 151.884 113.979L151.781 113.971Z" fill="#B2A221"/>
<path d="M158.334 112.556L157.372 112.903L156.308 111.784C155.197 112.745 156.779 113.901 155.173 114.513L153.305 111.566L156.666 109.728L158.334 112.556Z" fill="#B2A221"/>
<path d="M144.924 116.598C144.924 116.598 147.926 118.274 147.38 117.193L146.538 115.883L147.411 115.321L149.361 118.587C148.154 119.436 146.615 119.116 145.758 118.013C144.743 119.084 147.406 119.694 146.007 120.321L143.732 117.241C143.732 117.241 144.398 116.664 144.924 116.598Z" fill="#B2A221"/>
<path d="M170.671 101.879C170.277 102.996 168.759 103.823 168.166 104.821L166.21 101.66C167.194 101.002 168.247 99.4128 169.593 99.5106C170.733 99.5934 171.042 101.073 170.767 101.991L170.671 101.879ZM168.804 103.202L169.761 101.501C168.269 99.1021 167.053 101.513 168.804 103.202Z" fill="#B2A221"/>
<path d="M136.44 121.59L137.609 121.259L137.396 119.89L138.27 119.329L140.737 122.631L139.242 123.148L138.799 122.074L138.075 122.022L137.105 122.472L137.85 123.671L136.977 124.232L134.835 120.745C135.835 119.881 136.24 121.472 136.647 121.605L136.44 121.59Z" fill="#B2A221"/>
<path d="M164.501 103.628C166.749 104.208 165.301 108.371 163.296 108.746L161.316 105.895C161.362 105.274 163.887 103.479 164.501 103.628ZM163.8 107.534C165.06 105.959 164.685 103.954 162.493 105.46L163.8 107.534Z" fill="#B2A221"/>
<path d="M184.197 79.0252C184.248 79.7577 185.58 80.0627 185.661 80.381C185.941 80.8178 185.885 84.4579 184.719 81.8743C184.439 81.4375 183.55 82.2058 183.896 83.1681C184.162 83.8121 185.263 84.4126 184.087 84.8477L182.107 81.9969L184.19 79.1288L184.197 79.0252Z" fill="#B2A221"/>
<path d="M127.834 125.421C129.456 124.602 126.497 123.763 126.527 123.348L128.134 122.736L129.838 126.504L126.562 125.745C126.405 126.463 128.017 127.205 126.737 127.632C125.999 126.329 125.786 124.96 124.27 124.33C125.58 123.488 127.089 124.222 127.731 125.414L127.834 125.421Z" fill="#B2A221"/>
<path d="M181.039 83.8001C181.51 85.9167 186.023 85.4116 181.412 87.2631C181.137 88.1802 181.824 88.7507 180.935 89.5191L179.63 85.9884L181.039 83.8001Z" fill="#B2A221"/>
<path d="M160.23 106.552L158.91 108.955L160.332 108.017L159.509 109.31L160.071 110.184C160.071 110.184 161.871 108.337 162.187 109.713L159.662 111.508L157.779 108.768L160.238 106.448L160.23 106.552Z" fill="#B2A221"/>
<path d="M142.284 121.4L143.484 120.654C143.484 120.654 140.64 116.803 142.267 117.338L144.734 120.641C143.971 121.106 142.431 122.243 141.633 121.769C140.627 121.279 140.962 119.534 139.749 119.029C139.802 118.304 139.817 118.097 140.616 118.572C141.606 119.268 142.167 120.142 142.403 121.2L142.284 121.4Z" fill="#B2A221"/>
<path d="M187.998 75.4473C188.605 75.6996 186.249 78.0273 186.234 78.2344C186.204 78.6487 187.053 79.8557 186.379 80.5356C186.004 78.5301 184.468 76.7525 185.351 74.6302C186.149 75.1047 187.021 76.001 188.006 75.3437L187.998 75.4473Z" fill="#B2A221"/>
<path d="M132.331 122.241L130.864 123.8L132.655 123.514L131.506 124.992C132.505 125.585 133.476 123.678 133.904 124.958L131.431 126.028L129.29 122.54C130.325 122.616 131.593 120.938 132.331 122.241Z" fill="#B2A221"/>
<path d="M102.561 89.2245C100.659 89.6069 99.0995 88.1401 98.1864 90.6767C96.4443 87.4266 101.099 86.4112 102.561 89.2245Z" fill="#B2A221"/>
<path d="M71.027 110.492L73.8881 118.405C72.2628 116.412 68.9671 113.049 71.027 110.492Z" fill="#B2A221"/>
<path d="M130.993 48.9491L130.842 51.0205L132.484 51.3481C131.181 52.0864 130.566 53.3951 128.997 53.4894C128.628 52.8379 130.189 52.8472 129.954 51.7889C129.741 50.4199 128.955 51.1958 128.157 50.7213L131.104 48.8531L130.993 48.9491Z" fill="#B2A221"/>
<path d="M175.326 92.2553L176.307 94.513L177.678 92.8426L178.135 93.7088L176.187 96.1702C176.187 96.1702 174.665 94.1855 174.592 93.7637C174.422 93.2308 174.682 92.5208 175.222 92.2477L175.326 92.2553Z" fill="#B2A221"/>
<path d="M178.828 91.3689L180.199 89.6985C181.462 90.9356 179.101 91.9094 178.7 93.1296C178.065 91.8341 176.587 90.6856 177.218 89.1696L178.828 91.3689Z" fill="#B2A221"/>
<path d="M73.1281 105.932C72.531 104.119 72.9846 102.173 73.83 100.569C74.7396 100.947 73.3954 105.118 73.1281 105.932Z" fill="#B2A221"/>
<path d="M102.287 91.5299L102.553 92.1739C101.449 93.0308 99.1782 92.7617 98.6546 91.3701C99.9784 91.7786 101.007 91.9575 102.391 91.5375L102.287 91.5299Z" fill="#B2A221"/>
<path d="M138.174 70.4745C139.396 69.418 142.068 68.4668 143.569 69.3046C144.767 70.0164 148.392 76.0062 149.116 77.5164C151.02 81.403 152.338 86.1841 147.408 88.1166C143.337 89.6949 138.459 79.4493 137.642 76.3705C137.052 74.4536 136.397 72.0112 138.071 70.467L138.174 70.4745ZM147.233 86.2297C149.608 86.5064 147.372 81.4504 146.915 80.5842C145.461 77.6674 143.312 74.2836 141.524 71.655C140.216 71.0393 139.594 70.9941 139.688 72.5628C139.738 74.7528 143.399 81.6823 144.721 83.5483C145.002 83.9852 147.026 86.2147 147.233 86.2297Z" fill="black"/>
<path d="M146.994 63.7509C150.017 60.847 151.606 61.8995 153.888 64.8765C156.171 67.8535 162.669 78.7373 156.776 81.0164C155.17 81.6285 154.084 80.8207 152.908 79.7982C149.671 77.0642 142.965 67.6229 146.994 63.7509ZM157.283 78.3461C157.787 77.1333 151.748 67.1157 150.706 65.6865C149.849 64.5831 148.444 63.8562 148.316 65.617C148.196 67.2741 150.654 72.1379 151.584 73.6632C152.234 74.7516 154.805 78.0619 155.692 78.751C155.884 78.9732 156.083 79.0918 156.409 78.9073L157.386 78.3536L157.283 78.3461Z" fill="black"/>
<path d="M144.179 91.0356L140.04 93.5461C140.258 90.5426 138.507 88.8535 137.318 86.5807C136.145 84.1008 135.032 80.7922 133.104 78.6739C132.232 77.7776 130.87 77.8869 130.102 76.9982L134.419 73.4595C137.216 79.3891 140.19 85.7481 144.083 90.9245L144.179 91.0356Z" fill="black"/>
<path d="M146.383 53.5031C145.404 55.5144 146.927 56.0416 148.087 57.2712C149.055 58.2785 146.308 60.2654 145.376 60.1977C144.858 60.16 144.6 59.4125 144.163 59.6931L144.997 61.1073L138.576 66.3672C138.576 66.3672 138.328 64.0586 137.047 64.4861C137.336 64.8194 138.657 66.6854 137.592 67.0245C136.637 67.2675 135.87 64.9212 134.974 65.7932L137.014 67.8155L135.592 68.7533L133.082 64.6145C134.415 63.4619 134.91 63.8103 136.196 64.7366L135.511 62.7087L137.258 61.5862L139.533 64.6667L140.407 64.1055L137.94 60.8027L140.694 58.7123L141.256 59.586L139.619 60.6124L139.966 61.5747L140.647 60.7912L141.303 63.2335L142.422 62.1695L143.124 62.5329C143.896 60.5067 142.069 59.8533 141.02 58.5277L143.805 56.023C144.758 57.2375 144.954 60.2712 146.954 58.5423L144.487 55.2395L146.368 53.7103L146.383 53.5031Z" fill="black"/>
<path d="M170.294 88.4578C168.808 87.4128 167.486 85.5468 167.732 83.5864C168.128 81.0122 169.515 77.6771 172.453 77.3699C177.584 79.8251 174.949 87.4424 170.294 88.4578ZM170.363 80.3416C168.674 82.0931 171.357 83.8498 172.192 85.2639C174.457 84.1791 170.664 81.9253 170.363 80.3416Z" fill="black"/>
<path d="M134.955 107.625C136.944 108.914 135.588 110.378 135.771 112.161L137.238 110.601L137.85 112.208C138.953 111.351 138.829 110.197 139.932 109.34C140.925 108.579 143.205 107.287 143.824 108.789L144.261 108.509C144.44 107.481 144.967 105.957 145.945 105.403C147.033 104.754 149.178 105.326 149.822 105.06C151.006 104.522 151.437 102.887 151.978 102.614C152.304 102.43 153.213 102.808 153.968 102.446C154.835 101.989 155.021 100.857 156.205 100.318C157.175 99.8681 159.276 99.6044 159.704 100.885C157.913 101.171 157.186 102.576 155.78 103.307C154.81 103.757 153.36 103.652 152.923 103.932C152.272 104.301 151.76 105.618 150.679 106.164C149.709 106.614 146.845 107.343 146.082 107.808C145.431 108.177 145.141 109.302 144.386 109.663L142.211 109.505C140.102 109.873 138.616 114.554 136.718 112.021L135.628 114.129L134.296 113.824C134.424 112.063 134.56 110.199 134.688 108.438C134.725 107.92 134.223 107.675 135.074 107.425L134.955 107.625Z" fill="black"/>
<path d="M176.826 68.7095C178.374 67.4684 179.873 69.7639 180.404 71.0519C181.651 73.9536 178.972 80.7349 175.563 78.9255C172.155 77.1161 174.294 70.6079 176.826 68.7095ZM178.548 76.5394C179.29 74.9274 177.51 72.1951 176.098 71.572C176.154 73.6584 177.196 75.0876 178.548 76.5394Z" fill="black"/>
<path d="M168.027 89.5329L169.449 88.5951L169.781 89.7644L165.247 94.8491C164.574 94.0715 165.589 92.9999 165.435 92.2599C165.376 91.6309 164.423 90.4164 164.009 90.3863C163.491 90.3487 162.883 91.5539 162.64 90.5992C162.124 89.104 164.873 85.6596 165.688 84.4695L168.027 89.5329Z" fill="black"/>
<path d="M153.302 52.8586C153.302 52.8586 153.208 51.29 152.12 51.9397C151.378 53.5517 153.65 52.3632 152.931 53.6645C152.553 54.5741 151.31 54.4838 151.191 54.6834C151.191 54.6834 151.464 55.2239 151.131 55.512C148.93 58.5797 144.883 52.6634 149.035 51.4033L149.596 52.2769L148.286 53.1188L149.481 55.288C151.643 54.1957 151.282 53.4406 150.596 51.4125C150.257 50.3467 148.683 49.087 150.592 48.601C152.08 48.1885 153.149 50.661 154.799 50.8849C154.976 51.3143 153.716 52.8887 153.199 52.8511L153.302 52.8586Z" fill="black"/>
<path d="M151.566 40.9467L149.819 42.0692C150.158 43.135 150.862 42.0409 151.705 41.8939C153.703 41.6226 153.745 43.9162 152.619 45.0838C152.167 45.5715 151.531 45.7336 151.079 46.2213C150.278 47.2044 150.062 48.7504 148.567 49.2665C148.273 47.5792 147.224 46.2536 146.056 45.1276L148.116 42.5702C148.981 43.5701 148.314 44.1463 147.44 44.7076L148.186 45.907L149.194 44.9391C149.873 45.6132 149.007 46.0709 148.555 46.5586L149.849 47.3814L150.192 45.5322L151.005 45.7995C150.267 44.4965 151.917 44.7204 152.517 43.6187C152.178 42.5529 151.585 43.5511 150.845 43.7055C150.105 43.86 149.402 43.4966 149.152 42.6454C149.25 41.299 150.481 38.6814 151.574 40.8431L151.566 40.9467Z" fill="black"/>
<path d="M117.357 67.5457L118.963 66.9336C119.05 68.6058 120.447 69.4361 121.289 70.7467C119.948 72.0028 118.167 70.7281 116.992 69.7056C116.192 70.6887 118.839 71.5058 118.713 71.8089L116.966 72.9314C116.966 72.9314 117.041 71.8957 116.664 71.3478C116.015 70.2594 114.928 69.4516 113.804 69.1617C115.581 67.6249 116.069 68.0768 117.977 69.0484L117.253 67.5382L117.357 67.5457Z" fill="black"/>
<path d="M132.841 57.9345C133.847 58.424 134.163 59.8005 134.851 60.3711C135.338 60.823 136.028 59.936 136.374 60.8982L135.144 62.0582C135.144 62.0582 133.689 60.599 133.007 61.3824L134.167 62.612L132.746 63.5499C132.746 63.5499 131.454 61.2696 130.966 60.8177C130.478 60.3657 129.842 60.5277 129.576 59.8837L132.738 57.9269L132.841 57.9345Z" fill="black"/>
<path d="M131.225 65.8285L134.942 69.118L133.824 70.1821C132.182 69.8545 133.679 67.881 131.249 69.7868L132.41 71.0164L130.478 71.8131C130.606 70.0524 129.779 68.5347 129.159 67.032L131.121 65.821L131.225 65.8285Z" fill="black"/>
<path d="M120.786 71.9381C124.141 68.7459 127.735 76.6076 122.852 76.4611C120.884 76.3181 119.215 73.4899 120.786 71.9381ZM122.72 75.4103C124.865 75.9826 124.219 71.9792 122.006 72.3391C120.518 72.7516 121.389 75.1054 122.72 75.4103Z" fill="black"/>
<path d="M142.812 49.6886L146.479 52.2456L145.249 53.4056L144.688 52.5319L143.274 53.3662L144.206 53.434C144.442 54.4922 143.479 54.8388 142.82 55.3115C141.875 53.9934 142.543 51.9596 141.042 51.1218L142.923 49.5925L142.812 49.6886Z" fill="black"/>
<path d="M140.276 51.6016C141.037 52.594 140.799 52.9932 139.638 53.2212L142.238 56.1172L140.357 57.6464C140.485 55.8857 139.095 54.9518 138.142 53.7373C138.067 54.773 138.014 55.498 137.229 56.2739C136.896 56.562 135.92 55.6582 135.653 56.4717C135.23 58.0027 138.858 55.351 139.329 57.4676C139.815 59.377 137.802 59.8555 136.507 60.4902L135.945 59.6165C136.715 59.0477 138.15 59.3602 138.145 58.0063C137.791 57.1476 137.086 58.2418 136.354 58.2927C134.563 58.579 134.069 56.7732 135.299 55.6131C135.64 55.2214 136.468 55.2816 136.832 54.5791L137.941 55.0762L137.269 54.2985L140.276 51.6016Z" fill="black"/>
<path d="M121.773 65.5433C121.773 65.5433 121.091 66.3267 121.18 66.5413L123.914 69.0306L121.619 70.5298C121.865 68.5694 120.594 67.4359 119.108 66.3909L121.404 64.8918C121.404 64.8918 121.677 65.4322 121.78 65.4398C122.018 65.0405 122.055 64.5226 122.492 64.242L125.846 62.5074L126.703 63.6108L125.096 64.2229C125.673 64.8895 126.004 66.0589 126.588 66.6219C126.884 66.8516 127.462 66.0607 127.705 67.0154L125.225 68.1888C125.656 66.5542 124.34 66.0421 123.49 64.8351L122.778 66.0328C122.157 65.9877 122.076 65.6695 121.78 65.4398L121.773 65.5433Z" fill="black"/>
<path d="M150.599 95.7749C149.27 99.7389 145.068 93.0825 148.665 92.3026C150.115 92.408 151 94.5546 150.599 95.7749Z" fill="black"/>
<path d="M111.103 70.5011C111.103 70.5011 112.954 75.1126 114.674 72.9469L112.302 69.7553C114.434 69.0772 117.536 73.6755 114.361 74.3819C112.141 74.8453 112.039 73.3803 111.071 72.3729C110.583 71.921 109.947 72.083 109.681 71.439L111.103 70.5011Z" fill="black"/>
<path d="M126.547 68.6127L127.293 69.8122L126.153 69.7294L126.048 71.1794L127.151 70.3225L127.897 71.522L126.839 71.7575L128.368 73.6386L126.621 74.761C126.031 72.844 125.285 71.6446 123.592 70.5845L126.539 68.7163L126.547 68.6127Z" fill="black"/>
<path d="M129.587 61.1413L128.312 62.9229L129.282 62.4727C129.843 63.3464 128.577 63.5668 129.753 64.5892L131.914 63.4969C131.736 64.5251 130.062 66.0693 129.018 66.0977L126.271 62.3581C127.24 61.9079 128.389 60.4296 129.587 61.1413Z" fill="black"/>
<path d="M145.693 45.8291L146.765 46.844L145.706 47.0795L147.893 49.9454L146.618 51.7269L144.699 48.0475C144.699 48.0475 143.875 50.7988 143.093 48.6597L145.804 45.7331L145.693 45.8291Z" fill="black"/>
<path d="M167.045 74.3529C167.227 76.1361 167.909 75.3527 168.205 75.5824C169.668 76.9381 168.964 78.0323 167.542 78.9702C165.879 77.4959 164.461 75.5187 167.148 74.3604L167.045 74.3529Z" fill="black"/>
<path d="M156.255 89.5975L157.128 89.0363C158.111 89.8366 155.327 92.3413 155.119 92.3263L154.726 87.7165C154.001 87.6638 152.835 90.8068 152.794 88.5132C152.809 88.3061 153.816 87.338 154.142 87.1534C156.311 85.9575 155.744 89.4564 156.262 89.494L156.255 89.5975Z" fill="black"/>
<path d="M139.979 97.2851L140.54 98.1589L139.621 99.3415L141.278 99.4619L139.538 100.481C139.523 100.688 140.986 102.044 139.898 102.693C138.936 103.04 138.045 99.5394 137.787 98.7918L139.979 97.2851Z" fill="black"/>
<path d="M159.029 82.9325C159.029 82.9325 160.06 87.3802 160.037 87.6909C159.999 88.2088 159.585 88.1787 159.252 88.4669L158.206 84.2262C158.206 84.2262 157.079 86.8513 156.459 85.3487L159.029 82.9325Z" fill="black"/>
<path d="M154.007 93.3025L153.096 94.3816C152.616 93.8261 152.277 92.7603 151.693 92.1973C151.205 91.7454 150.412 92.6249 150.169 91.6702C152.171 88.4838 152.597 91.2218 154.007 93.3025Z" fill="black"/>
<path d="M144.06 95.4979L143.985 96.5336L143.015 96.9837L143.576 97.8575L145.145 97.7631L143.945 98.509L144.669 100.019C143.011 99.8987 142.622 98.1004 141.765 96.997L144.06 95.4979Z" fill="black"/>
<path d="M165.751 80.711L165.032 82.0122C164.13 81.5302 163.652 79.5173 162.667 80.1745L163.224 78.2368L165.648 80.7035L165.751 80.711Z" fill="black"/>
<path d="M161.46 81.0317L163.136 83.7565L162.646 84.7621C162.019 83.363 161.443 82.6964 159.904 82.3764L161.46 81.0317Z" fill="black"/>
<path d="M41.2802 112.92C50.3073 106.184 57.0459 119.48 53.7812 127.155C51.0136 133.722 43.5136 138.071 38.4023 131.036C34.8052 126.089 36.3336 116.517 41.2802 112.92ZM42.1278 115.585C36.8177 119.884 39.2274 134.011 46.6071 131.32C49.8195 130.095 52.0149 125.674 51.9374 122.44C51.6771 117.424 47.0971 111.677 42.2239 115.696L42.1278 115.585Z" fill="black"/>
<path d="M63.8234 139.412C67.7192 135.947 73.525 137.723 73.0151 143.308C72.7593 146.829 66.295 151.253 63.5756 148.557C60.8562 145.86 61.0309 142.021 63.8234 139.412ZM65.8647 139.977C64.0212 140.989 67.8405 145.743 68.2548 145.773C68.5655 145.796 68.9364 144.99 68.8479 144.775L65.8647 139.977Z" fill="black"/>
<path d="M55.3678 158.365L56.5353 159.491L50.4761 165.506C49.7754 163.685 50.8296 160.638 48.3816 159.939C47.4645 159.665 46.4721 160.425 45.7772 159.958L50.7425 153.239L51.4449 153.603C52.0495 155.312 52.7634 158.384 54.9534 158.335C53.8385 156.484 51.5484 153.61 52.55 151.288C52.6837 150.881 56.1446 146.239 56.4704 146.055C59.647 143.891 63.2458 147.38 63.1162 150.598C62.8603 154.12 59.1849 158.85 55.3603 158.468L55.3678 158.365ZM59.6796 153.472L56.7925 148.785C56.4233 148.134 55.7418 148.917 55.9848 149.872C56.2353 150.723 58.4652 154.425 59.0866 154.47C59.5084 154.397 59.7606 153.79 59.6796 153.472Z" fill="black"/>
<path d="M59.1141 141.192C58.7432 141.998 58.6379 143.448 57.4459 144.09L56.4045 142.661C53.7116 142.465 55.4462 145.819 54.9868 146.41C54.5273 147.002 53.7364 146.424 53.196 146.697C52.4334 147.162 52.8911 148.028 51.3017 146.976C50.605 147.966 51.1663 148.84 50.1664 149.704C48.5 151.145 48.0949 149.554 47.1251 150.004C46.37 150.366 45.1613 152.673 44.8506 152.65C43.3139 150.872 45.3945 149.462 46.1363 147.85L48.2077 148C48.8987 145.656 50.6895 145.369 52.2448 144.025C52.8078 143.441 52.7644 142.605 53.5346 142.036C54.4233 141.268 55.881 141.27 56.8884 140.302C57.4439 139.821 57.4004 138.985 57.9559 138.505C59.3041 137.145 62.6861 136.454 64.5503 136.589C63.0083 139.184 60.5978 137.968 59.1141 141.192Z" fill="black"/>
<path d="M64.1856 130.162C65.3249 130.245 62.8733 132.462 62.5475 132.646C61.6588 133.415 60.5854 133.857 59.8078 134.53C53.8312 139.405 48.5345 144.955 43.0456 150.283C42.6615 149.839 42.8027 149.328 43.0399 148.929C43.6631 147.517 48.4627 143.076 49.8109 141.716C54.1737 137.556 59.062 133.33 64.1856 130.162Z" fill="black"/>
<path d="M60.3938 129.291C60.8741 129.846 60.5408 130.134 60.296 130.637C59.3019 132.856 56.1703 134.398 54.2817 136.031C50.7267 139.104 47.5634 142.519 44.2004 145.814C43.8313 145.163 43.8105 144.016 44.27 143.425C45.4261 141.843 49.2109 138.474 50.7813 136.922C53.7884 134.225 57.0911 131.758 60.2903 129.283L60.3938 129.291Z" fill="black"/>
<path d="M39.1146 102.646C38.4932 102.601 36.8188 98.4183 37.1821 97.7159C37.6566 96.9174 38.9221 96.697 39.4908 97.4671C39.8675 98.0151 39.6152 98.6215 39.6962 98.9397C40.0503 99.7984 41.8693 100.555 40.8243 102.041C40.6021 102.233 39.4253 102.668 39.1146 102.646Z" fill="black"/>
<path d="M50.3378 88.5848C50.3378 88.5848 51.8029 88.483 51.995 88.7052C52.6974 89.0686 52.4151 90.0892 52.9989 90.6522C53.4866 91.1041 55.2773 90.8178 54.543 92.3262C52.5548 96.7629 49.2345 89.4417 50.2268 88.6809L50.3378 88.5848Z" fill="black"/>
<path d="M29.423 118.523C29.9276 117.31 28.1761 115.621 29.9971 114.92C30.4113 114.95 32.0915 120.486 30.8921 121.232L26.4647 117.683C27.0144 115.849 28.7582 117.641 29.423 118.523Z" fill="black"/>
<path d="M50.3547 94.1084L51.0363 93.325L51.2419 94.7976L48.6583 95.9634L48.0971 95.0896L49.0818 94.4324C47.419 92.958 49.2248 92.4645 47.9762 91.0203L46.9914 91.6776L47.4415 92.6474L46.613 92.5872C45.2533 91.239 48.7123 88.0544 50.0176 91.5851C50.2756 92.3326 49.8897 93.3458 50.4659 94.0124L50.3547 94.1084Z" fill="black"/>
<path d="M27.9936 105.26C29.8087 103.206 33.6864 108.589 30.555 110.132C28.719 111.04 26.86 106.532 27.9936 105.26ZM29.9636 109.672C30.9843 109.955 30.7824 105.567 28.6658 106.038C28.3609 107.37 29.2028 108.68 29.9636 109.672Z" fill="black"/>
<path d="M19.6465 114.045C19.6465 114.045 22.2995 110.489 22.6819 112.391L20.8893 114.135L21.4506 115.009C21.4506 115.009 22.8515 112.924 23.2866 114.101C23.6256 115.167 22.6709 115.41 22.5071 116.231C22.4545 116.956 24.1475 118.016 22.3341 118.613L19.6314 114.252L19.6465 114.045Z" fill="black"/>
<path d="M45.6264 91.7794L47.3142 97.2121L46.3368 97.7658C44.7456 98.1707 45.41 93.3255 44.8037 93.0732L44.0318 95.0995L42.6871 93.5442L45.6264 91.7794Z" fill="black"/>
<path d="M25.4397 108.855L24.7262 111.51L26.0518 110.461L26.7976 111.661C24.747 112.657 26.2253 113.805 26.1125 115.359L23.0765 111.286L25.5432 108.862L25.4397 108.855Z" fill="black"/>
<path d="M26.0074 118.246C26.6196 119.853 23.7179 121.1 27.0848 120.615C25.6105 122.278 28.1245 123.502 26.7914 124.655L23.874 120.382L26.0074 118.246Z" fill="black"/>
<path d="M37.1211 102.812L37.6181 101.702L38.1341 103.198L36.0159 105.126C34.9877 104.947 36.6577 100.592 34.6748 100.656L34.1475 102.179L33.6315 100.684C36.6837 97.3658 36.7067 102.781 37.0174 102.804L37.1211 102.812Z" fill="black"/>
<path d="M42.5921 100.614L41.7764 96.0775L40.1702 96.6897C38.6994 95.4375 40.1342 95.75 41.008 95.1887C41.6595 94.8196 42.1716 93.5033 42.7178 94.5841C43.345 95.9832 42.4545 98.2091 44.0364 99.3652L42.5921 100.614Z" fill="black"/>
<path d="M31.4425 102.209L34.2336 106.785L33.8702 107.487C32.9381 107.419 32.2675 105.184 31.5876 104.51C31.3955 104.288 30.84 104.768 30.759 104.45C30.5745 104.124 30.7024 102.363 31.4425 102.209Z" fill="black"/>
<path d="M89.229 97.8578L88.6603 97.0877C89.2534 96.0896 89.8899 95.9275 90.8521 95.581C91.4961 95.3154 91.1119 94.871 90.9048 94.856C89.8841 94.5736 86.5455 96.1011 85.8413 97.1952C85.2198 97.15 86.2366 94.621 86.5774 94.2292C87.1705 93.2312 88.0667 92.3592 89.2511 91.8205C89.8951 91.555 90.8047 91.9334 91.1681 91.231C87.174 90.3161 84.922 92.6514 84.9543 96.5061C84.2877 97.0824 84.2443 96.2462 84.0672 95.8169C83.7507 94.4403 83.6432 91.6214 84.4585 90.4312C85.8744 88.1394 90.3523 86.6947 91.4805 89.796C91.7461 90.44 91.3828 91.1425 91.6409 91.8901C91.8029 92.5266 92.4901 93.097 92.541 93.8295C92.8274 95.6203 91.3815 98.3265 89.229 97.8578Z" fill="black"/>
<path d="M38.7281 83.5603C43.0457 80.0216 45.1495 84.0268 39.9165 85.8331C39.2951 85.788 38.165 84.1441 38.7281 83.5603Z" fill="black"/>
<path d="M27.8044 92.0282C27.8044 92.0282 28.7064 92.5101 28.6763 92.9244C28.2151 94.9732 26.5544 97.7679 24.2024 97.1806C23.901 95.5969 25.9476 91.7891 27.8044 92.0282Z" fill="black"/>
<path d="M147.947 30.5893C149.962 28.6533 148.827 31.3821 148.322 32.5948L146.486 33.5026C145.541 32.1845 146.186 30.4614 146.795 29.2562C147.83 29.3315 147.578 29.9378 147.844 30.5818L147.947 30.5893Z" fill="black"/>
<path d="M138.382 41.8589C140.77 43.3859 138.118 45.4839 136.393 46.2957C134.309 44.8948 137.16 42.9155 138.382 41.8589Z" fill="black"/>
<path d="M151.779 113.97C151.779 113.97 152.873 114.674 152.629 115.177L151.25 116.951L149.751 114.655L151.676 113.962L151.779 113.97Z" fill="black"/>
<path d="M168.8 103.218C167.048 101.529 168.265 99.1182 169.756 101.517L168.8 103.218Z" fill="black"/>
<path d="M163.804 107.566L162.497 105.492C164.689 103.986 165.064 105.991 163.804 107.566Z" fill="black"/>
<path d="M147.234 86.2427C147.234 86.2427 145.002 83.9982 144.721 83.5613C143.296 81.6877 139.738 74.7658 139.689 72.5757C139.602 70.9035 140.224 70.9487 141.525 71.6679C143.312 74.2966 145.461 77.6804 146.915 80.5972C147.373 81.4634 149.601 86.6229 147.234 86.2427Z" fill="#B2A221"/>
<path d="M157.282 78.3476L156.305 78.9013C156.305 78.9013 155.787 78.8636 155.587 78.745C154.7 78.0558 152.13 74.7456 151.48 73.6572C150.549 72.1319 147.988 67.2606 148.212 65.611C148.347 63.7467 149.848 64.5846 150.602 65.6805C151.747 67.1172 157.779 77.2384 157.178 78.3401L157.282 78.3476Z" fill="#B2A221"/>
<path d="M170.358 80.3234C170.763 81.9146 174.452 84.1608 172.187 85.2457C171.352 83.8315 168.669 82.0748 170.358 80.3234Z" fill="#B2A221"/>
<path d="M178.549 76.5338C177.197 75.0821 176.156 73.6529 176.099 71.5664C177.511 72.1896 179.395 74.9294 178.549 76.5338Z" fill="#B2A221"/>
<path d="M122.724 75.3799C121.496 75.0825 120.626 72.7287 122.01 72.3086C124.222 71.9488 124.868 75.9522 122.724 75.3799Z" fill="#B2A221"/>
<path d="M42.128 115.585C47.1048 111.574 51.685 117.32 51.8417 122.329C52.0227 125.57 49.7162 130.088 46.5112 131.209C39.1315 133.9 36.722 119.773 42.0321 115.474L42.128 115.585ZM44.4793 129.083C44.5943 131.798 47.6899 129.316 48.912 128.26C53.1412 124.506 50.5925 115.159 44.7324 115.566C41.3805 115.843 39.368 122.048 40.208 124.816L43.652 121.839L43.9498 126.337C44.8067 127.441 43.9366 125.087 44.8687 125.155C46.6051 127.051 43.9273 126.648 44.6505 128.158C42.7335 128.748 43.8197 123.829 43.0062 123.562C42.6353 124.368 41.6806 124.611 41.1176 125.194C39.6432 126.857 42.3477 129.761 44.0933 130.096L44.4793 129.083Z" fill="#6C671E"/>
<path d="M65.8668 139.981L68.85 144.779C68.85 144.779 68.5751 145.696 68.2569 145.777C67.8426 145.747 63.9197 140.985 65.8668 139.981Z" fill="#B2A221"/>
<path d="M59.679 153.488C59.679 153.488 59.4042 154.405 59.086 154.486C58.4646 154.441 56.2347 150.739 55.9842 149.887C55.7412 148.933 56.3191 148.142 56.7918 148.801L59.679 153.488Z" fill="#B2A221"/>
<path d="M29.962 109.686C29.3122 108.597 28.3592 107.383 28.6641 106.051C30.7807 105.58 30.9751 110.072 29.962 109.686Z" fill="#B2A221"/>
<path d="M44.4827 129.073L44.0967 130.086C42.3511 129.751 39.6542 126.744 41.121 125.184C41.684 124.6 42.6387 124.357 43.0096 123.551C43.8231 123.819 42.6334 128.73 44.6539 128.148C43.9307 126.638 46.5049 127.033 44.8721 125.144C43.94 125.077 44.8101 127.431 43.9532 126.327L43.6554 121.828L40.2114 124.806C39.3789 121.934 41.3839 115.833 44.7358 115.556C50.5959 115.148 53.1446 124.496 48.9154 128.249C47.6934 129.306 44.5977 131.788 44.4827 129.073ZM49.0486 122.116C48.0581 121.419 48.926 119.504 48.2461 118.83C47.5663 118.156 44.9452 119.84 45.9132 120.847L46.6908 120.175C46.6155 121.211 47.6513 121.286 47.7398 121.5C47.8283 121.715 47.804 123.483 48.6025 123.958L46.1601 124.613L47.098 126.035C49.2673 124.839 49.5646 123.611 49.8338 121.34L49.0562 122.012L49.0486 122.116Z" fill="black"/>
<path d="M49.0469 122.118L49.8245 121.445C49.6515 123.827 49.258 124.944 47.0888 126.14L46.1508 124.718L48.5933 124.063C47.6912 123.581 47.8191 121.82 47.7306 121.606C47.642 121.391 46.5027 121.308 46.6816 120.28L45.904 120.952C44.9435 119.841 47.557 118.261 48.2369 118.935C48.9167 119.609 48.0564 121.421 49.0394 122.221L49.0469 122.118Z" fill="#6C671E"/>
</svg>
