<svg width="39" height="39" viewBox="0 0 39 39" fill="none" xmlns="http://www.w3.org/2000/svg">
<path fill-rule="evenodd" clip-rule="evenodd" d="M19.244 25.8915C22.9155 25.8915 25.8919 22.9152 25.8919 19.2436C25.8919 15.5721 22.9155 12.5957 19.244 12.5957C15.5724 12.5957 12.5961 15.5721 12.5961 19.2436C12.5961 22.9152 15.5724 25.8915 19.244 25.8915ZM19.244 23.6756C21.6916 23.6756 23.6759 21.6913 23.6759 19.2436C23.6759 16.7959 21.6916 14.8117 19.244 14.8117C16.7963 14.8117 14.812 16.7959 14.812 19.2436C14.812 21.6913 16.7963 23.6756 19.244 23.6756Z" fill="white"/>
<path d="M25.8919 11.4883C25.28 11.4883 24.7839 11.9843 24.7839 12.5963C24.7839 13.2082 25.28 13.7043 25.8919 13.7043C26.5039 13.7043 26.9999 13.2082 26.9999 12.5963C26.9999 11.9843 26.5039 11.4883 25.8919 11.4883Z" fill="white"/>
<path fill-rule="evenodd" clip-rule="evenodd" d="M7.78067 10.686C7.05609 12.1081 7.05609 13.9696 7.05609 17.6928V20.7952C7.05609 24.5184 7.05609 26.38 7.78067 27.802C8.41803 29.0529 9.43503 30.0699 10.6859 30.7072C12.108 31.4319 13.9696 31.4319 17.6928 31.4319H20.7951C24.5183 31.4319 26.3799 31.4319 27.8019 30.7072C29.0528 30.0699 30.0699 29.0529 30.7072 27.802C31.4318 26.38 31.4318 24.5184 31.4318 20.7952V17.6928C31.4318 13.9696 31.4318 12.1081 30.7072 10.686C30.0699 9.43509 29.0528 8.41809 27.8019 7.78073C26.3799 7.05615 24.5183 7.05615 20.7951 7.05615H17.6928C13.9696 7.05615 12.108 7.05615 10.6859 7.78073C9.43503 8.41809 8.41803 9.43509 7.78067 10.686ZM20.7951 9.27213H17.6928C15.7946 9.27213 14.5043 9.27385 13.5069 9.35534C12.5354 9.43471 12.0385 9.57858 11.692 9.75518C10.858 10.1801 10.18 10.8581 9.75511 11.692C9.57852 12.0386 9.43465 12.5354 9.35528 13.5069C9.27379 14.5043 9.27207 15.7947 9.27207 17.6928V20.7952C9.27207 22.6934 9.27379 23.9836 9.35528 24.9811C9.43465 25.9527 9.57852 26.4495 9.75511 26.796C10.18 27.6299 10.858 28.3079 11.692 28.7328C12.0385 28.9094 12.5354 29.0534 13.5069 29.1327C14.5043 29.2141 15.7946 29.2159 17.6928 29.2159H20.7951C22.6933 29.2159 23.9836 29.2141 24.981 29.1327C25.9526 29.0534 26.4494 28.9094 26.796 28.7328C27.6299 28.3079 28.3078 27.6299 28.7327 26.796C28.9094 26.4495 29.0533 25.9527 29.1326 24.9811C29.2141 23.9836 29.2158 22.6934 29.2158 20.7952V17.6928C29.2158 15.7947 29.2141 14.5043 29.1326 13.5069C29.0533 12.5354 28.9094 12.0386 28.7327 11.692C28.3078 10.8581 27.6299 10.1801 26.796 9.75518C26.4494 9.57858 25.9526 9.43471 24.981 9.35534C23.9836 9.27385 22.6933 9.27213 20.7951 9.27213Z" fill="white"/>
<circle cx="19.244" cy="19.244" r="18.744" stroke="white"/>
</svg>
