<svg width="39" height="39" viewBox="0 0 39 39" fill="none" xmlns="http://www.w3.org/2000/svg">
<circle cx="19.6371" cy="19.244" r="18.744" stroke="white"/>
<path d="M19.85 7.07648C21.1798 7.05615 22.4999 7.06672 23.8192 7.05615C23.863 8.70716 24.5324 10.1931 25.5974 11.2938L25.5958 11.2922C26.7421 12.3254 28.2336 12.9952 29.8778 13.109L29.9005 13.1107V17.2044C28.3473 17.1654 26.8867 16.8069 25.5698 16.1907L25.6364 16.2184C24.9995 15.9119 24.4609 15.5973 23.9492 15.2462L23.9914 15.2738C23.9817 18.2401 24.0012 21.2064 23.9711 24.1621C23.8874 25.6684 23.387 27.0422 22.5844 28.1892L22.6006 28.164C21.2586 30.0873 19.0847 31.3498 16.6127 31.4246H16.6013C16.5014 31.4294 16.3836 31.4319 16.265 31.4319C14.8596 31.4319 13.546 31.04 12.4266 30.3596L12.4591 30.3783C10.4217 29.1517 9.01631 27.0528 8.75635 24.6116L8.7531 24.5783C8.73279 24.0702 8.72304 23.5622 8.74335 23.0647C9.14141 19.1798 12.3941 16.1745 16.3479 16.1745C16.7922 16.1745 17.2277 16.2127 17.6509 16.285L17.6054 16.2785C17.6257 17.7816 17.5648 19.2855 17.5648 20.7885C17.2212 20.6642 16.8247 20.5918 16.4112 20.5918C14.8938 20.5918 13.6029 21.5624 13.1252 22.9175L13.1179 22.9419C13.0099 23.289 12.9473 23.6882 12.9473 24.1011C12.9473 24.2686 12.9579 24.4344 12.9774 24.597L12.9758 24.5775C13.2455 26.2407 14.6704 27.4958 16.3885 27.4958C16.4381 27.4958 16.4868 27.495 16.5355 27.4925H16.5282C17.7167 27.4568 18.7484 26.817 19.3317 25.8716L19.3398 25.857C19.5567 25.5546 19.7054 25.1888 19.7549 24.7913L19.7557 24.7799C19.8573 22.9614 19.8167 21.1535 19.8264 19.3351C19.8362 15.2413 19.8167 11.1572 19.8467 7.07404L19.85 7.07648Z" fill="white"/>
</svg>
